<?xml version="1.0" encoding="UTF-8" standalone="no"?>
<!-- Created with Inkscape (http://www.inkscape.org/) -->

<svg
   xmlns:dc="http://purl.org/dc/elements/1.1/"
   xmlns:cc="http://creativecommons.org/ns#"
   xmlns:rdf="http://www.w3.org/1999/02/22-rdf-syntax-ns#"
   xmlns:svg="http://www.w3.org/2000/svg"
   xmlns="http://www.w3.org/2000/svg"
   xmlns:sodipodi="http://sodipodi.sourceforge.net/DTD/sodipodi-0.dtd"
   xmlns:inkscape="http://www.inkscape.org/namespaces/inkscape"
   width="400.00006"
   height="155.62187"
   id="svg2"
   version="1.1"
   inkscape:version="0.48.3.1 r9886"
   sodipodi:docname="cov-HMM.svg">
  <defs
     id="defs4">
    <marker
       inkscape:stockid="Arrow1Lstart"
       orient="auto"
       refY="0"
       refX="0"
       id="Arrow1Lstart"
       style="overflow:visible">
      <path
         id="path4003"
         d="M 0,0 5,-5 -12.5,0 5,5 0,0 z"
         style="fill-rule:evenodd;stroke:#000000;stroke-width:1pt"
         transform="matrix(0.8,0,0,0.8,10,0)"
         inkscape:connector-curvature="0" />
    </marker>
    <marker
       inkscape:stockid="Arrow1Lend"
       orient="auto"
       refY="0"
       refX="0"
       id="Arrow1Lend"
       style="overflow:visible">
      <path
         id="path4006"
         d="M 0,0 5,-5 -12.5,0 5,5 0,0 z"
         style="fill-rule:evenodd;stroke:#000000;stroke-width:1pt"
         transform="matrix(-0.8,0,0,-0.8,-10,0)"
         inkscape:connector-curvature="0" />
    </marker>
    <marker
       inkscape:stockid="Arrow1Lend"
       orient="auto"
       refY="0"
       refX="0"
       id="Arrow1Lend-4"
       style="overflow:visible">
      <path
         id="path4006-0"
         d="M 0,0 5,-5 -12.5,0 5,5 0,0 z"
         style="fill-rule:evenodd;stroke:#000000;stroke-width:1pt"
         transform="matrix(-0.8,0,0,-0.8,-10,0)"
         inkscape:connector-curvature="0" />
    </marker>
    <marker
       inkscape:stockid="Arrow1Lend"
       orient="auto"
       refY="0"
       refX="0"
       id="Arrow1Lend-8"
       style="overflow:visible">
      <path
         id="path4006-7"
         d="M 0,0 5,-5 -12.5,0 5,5 0,0 z"
         style="fill-rule:evenodd;stroke:#000000;stroke-width:1pt"
         transform="matrix(-0.8,0,0,-0.8,-10,0)"
         inkscape:connector-curvature="0" />
    </marker>
    <marker
       inkscape:stockid="Arrow1Lstart"
       orient="auto"
       refY="0"
       refX="0"
       id="Arrow1Lstart-4"
       style="overflow:visible">
      <path
         id="path4003-6"
         d="M 0,0 5,-5 -12.5,0 5,5 0,0 z"
         style="fill-rule:evenodd;stroke:#000000;stroke-width:1pt"
         transform="matrix(0.8,0,0,0.8,10,0)"
         inkscape:connector-curvature="0" />
    </marker>
    <marker
       inkscape:stockid="Arrow1Lstart"
       orient="auto"
       refY="0"
       refX="0"
       id="marker4618"
       style="overflow:visible">
      <path
         id="path4620"
         d="M 0,0 5,-5 -12.5,0 5,5 0,0 z"
         style="fill-rule:evenodd;stroke:#000000;stroke-width:1pt"
         transform="matrix(0.8,0,0,0.8,10,0)"
         inkscape:connector-curvature="0" />
    </marker>
    <marker
       inkscape:stockid="Arrow1Lstart"
       orient="auto"
       refY="0"
       refX="0"
       id="Arrow1Lstart-0"
       style="overflow:visible">
      <path
         id="path4003-8"
         d="M 0,0 5,-5 -12.5,0 5,5 0,0 z"
         style="fill-rule:evenodd;stroke:#000000;stroke-width:1pt"
         transform="matrix(0.8,0,0,0.8,10,0)"
         inkscape:connector-curvature="0" />
    </marker>
    <marker
       inkscape:stockid="Arrow1Lstart"
       orient="auto"
       refY="0"
       refX="0"
       id="marker4653"
       style="overflow:visible">
      <path
         id="path4655"
         d="M 0,0 5,-5 -12.5,0 5,5 0,0 z"
         style="fill-rule:evenodd;stroke:#000000;stroke-width:1pt"
         transform="matrix(0.8,0,0,0.8,10,0)"
         inkscape:connector-curvature="0" />
    </marker>
  </defs>
  <sodipodi:namedview
     id="base"
     pagecolor="#ffffff"
     bordercolor="#666666"
     borderopacity="1.0"
     inkscape:pageopacity="0.0"
     inkscape:pageshadow="2"
     inkscape:zoom="2.3496083"
     inkscape:cx="203.5565"
     inkscape:cy="32.13239"
     inkscape:document-units="px"
     inkscape:current-layer="layer1"
     showgrid="false"
     width="200px"
     fit-margin-top="0"
     fit-margin-left="0"
     fit-margin-right="0"
     fit-margin-bottom="0"
     inkscape:object-nodes="true"
     inkscape:window-width="2560"
     inkscape:window-height="1544"
     inkscape:window-x="0"
     inkscape:window-y="27"
     inkscape:window-maximized="1" />
  <metadata
     id="metadata7">
    <rdf:RDF>
      <cc:Work
         rdf:about="">
        <dc:format>image/svg+xml</dc:format>
        <dc:type
           rdf:resource="http://purl.org/dc/dcmitype/StillImage" />
        <dc:title />
      </cc:Work>
    </rdf:RDF>
  </metadata>
  <g
     inkscape:label="Layer 1"
     inkscape:groupmode="layer"
     id="layer1"
     transform="translate(-99.999983,-671.74037)">
    <g
       id="g3010"
       transform="matrix(0.66666475,0,0,0.66668855,33.333525,275.76932)">
      <path
         transform="matrix(0.94509455,0,0,-0.94509454,10.958591,874.54949)"
         d="m 251.42857,129.28572 c 0,42.99931 -34.85783,77.85714 -77.85714,77.85714 -42.99931,0 -77.857143,-34.85783 -77.857143,-77.85714 0,-42.99931 34.857833,-77.857139 77.857143,-77.857139 42.99931,0 77.85714,34.857829 77.85714,77.857139 z"
         sodipodi:ry="77.85714"
         sodipodi:rx="77.85714"
         sodipodi:cy="129.28572"
         sodipodi:cx="173.57143"
         id="path3010"
         style="fill:#ffffff;stroke:#000000;stroke-width:3;stroke-miterlimit:4;stroke-dasharray:none"
         sodipodi:type="arc" />
      <flowRoot
         transform="translate(-1.0101525,572.39464)"
         style="font-size:40px;font-style:normal;font-weight:normal;line-height:125%;letter-spacing:0px;word-spacing:0px;fill:#000000;fill-opacity:1;stroke:none;font-family:Sans"
         id="flowRoot6058"
         xml:space="preserve"><flowRegion
           id="flowRegion6060"><rect
             y="154.53293"
             x="132.32999"
             height="55.968742"
             width="107.07784"
             id="rect6062" /></flowRegion><flowPara
           id="flowPara6064">DUP</flowPara></flowRoot>    </g>
    <g
       id="g3017"
       transform="matrix(0.66666667,0,0,0.66668855,16.666682,275.6832)">
      <path
         d="m 251.42857,129.28572 c 0,42.99931 -34.85783,77.85714 -77.85714,77.85714 -42.99931,0 -77.857143,-34.85783 -77.857143,-77.85714 0,-42.99931 34.857833,-77.857139 77.857143,-77.857139 42.99931,0 77.85714,34.857829 77.85714,77.857139 z"
         sodipodi:ry="77.85714"
         sodipodi:rx="77.85714"
         sodipodi:cy="129.28572"
         sodipodi:cx="173.57143"
         id="path3010-2"
         style="fill:#ffffff;stroke:#000000;stroke-width:3;stroke-miterlimit:4;stroke-dasharray:none"
         sodipodi:type="arc"
         transform="matrix(0.94509455,0,0,0.94509454,260.95859,630.17503)" />
      <flowRoot
         transform="translate(0,573.39464)"
         style="font-size:40px;font-style:normal;font-weight:normal;line-height:125%;letter-spacing:0px;word-spacing:0px;fill:#000000;fill-opacity:1;stroke:none;font-family:Sans"
         id="flowRoot6066"
         xml:space="preserve"><flowRegion
           id="flowRegion6068"><rect
             y="153.52278"
             x="380.82751"
             height="53.538082"
             width="89.903564"
             id="rect6070" /></flowRegion><flowPara
           id="flowPara6072">NOR</flowPara></flowRoot>    </g>
    <g
       id="g3024"
       transform="matrix(0.66666667,0,0,0.66668855,1.4176684e-5,275.6832)">
      <path
         d="m 251.42857,129.28572 c 0,42.99931 -34.85783,77.85714 -77.85714,77.85714 -42.99931,0 -77.857143,-34.85783 -77.857143,-77.85714 0,-42.99931 34.857833,-77.857139 77.857143,-77.857139 42.99931,0 77.85714,34.857829 77.85714,77.857139 z"
         sodipodi:ry="77.85714"
         sodipodi:rx="77.85714"
         sodipodi:cy="129.28572"
         sodipodi:cx="173.57143"
         id="path3010-3"
         style="fill:#ffffff;stroke:#000000;stroke-width:3;stroke-miterlimit:4;stroke-dasharray:none"
         sodipodi:type="arc"
         transform="matrix(0.94509455,0,0,0.94509454,510.95859,630.17503)" />
      <text
         sodipodi:linespacing="125%"
         id="text6074"
         y="767.36224"
         x="637.40625"
         style="font-size:40px;font-style:normal;font-weight:normal;line-height:125%;letter-spacing:0px;word-spacing:0px;fill:#000000;fill-opacity:1;stroke:none;font-family:Sans"
         xml:space="preserve"><tspan
           y="767.36224"
           x="637.40625"
           id="tspan6076"
           sodipodi:role="line">DEL</tspan></text>
    </g>
    <path
       style="fill:none;stroke:#000000;stroke-width:1.00244582px;stroke-linecap:butt;stroke-linejoin:miter;stroke-opacity:1;marker-end:url(#Arrow1Lend)"
       d="m 122.0824,735.86103 c -32.299029,-85.52431 87.57355,-84.12463 54.55368,0"
       id="path7773"
       inkscape:connector-curvature="0"
       sodipodi:nodetypes="cc" />
    <path
       style="fill:none;stroke:#000000;stroke-width:1.00244582px;stroke-linecap:butt;stroke-linejoin:miter;stroke-opacity:1;marker-end:url(#Arrow1Lend)"
       d="m 272.0824,735.86103 c -32.29903,-85.52431 87.57355,-84.12463 54.55368,0"
       id="path7773-0"
       inkscape:connector-curvature="0"
       sodipodi:nodetypes="cc" />
    <path
       style="fill:none;stroke:#000000;stroke-width:1.00244582px;stroke-linecap:butt;stroke-linejoin:miter;stroke-opacity:1;marker-end:url(#Arrow1Lend)"
       d="m 422.0824,735.86103 c -32.29903,-85.52431 87.57355,-84.12463 54.55368,0"
       id="path7773-1"
       inkscape:connector-curvature="0"
       sodipodi:nodetypes="cc" />
    <path
       style="fill:none;stroke:#000000;stroke-width:0.99005789px;stroke-linecap:butt;stroke-linejoin:miter;stroke-opacity:1;marker-start:url(#Arrow1Lstart);marker-end:none"
       d="m 198.93142,784.05716 c 12.78589,3.87484 20.16254,6.05115 28.1629,5.39236 7.12692,-0.58689 13.77231,-1.55562 24.50567,-7.64313"
       id="path3031"
       inkscape:connector-curvature="0"
       sodipodi:nodetypes="csc" />
    <path
       style="fill:none;stroke:#000000;stroke-width:0.99005789px;stroke-linecap:butt;stroke-linejoin:miter;stroke-opacity:1;marker-start:url(#Arrow1Lstart)"
       d="m 251.1636,769.80067 c -22.9405,-5.45432 -30.45892,-6.57859 -52.66855,2.25077"
       id="path3031-5"
       inkscape:connector-curvature="0"
       sodipodi:nodetypes="cc" />
    <path
       style="fill:none;stroke:#000000;stroke-width:0.99005789px;stroke-linecap:butt;stroke-linejoin:miter;stroke-opacity:1;marker-start:url(#Arrow1Lstart);marker-end:none"
       d="m 349.5514,784.05716 c 12.78589,3.87484 20.16254,6.05115 28.1629,5.39236 7.12692,-0.58689 13.77231,-1.55562 24.50567,-7.64313"
       id="path3031-8"
       inkscape:connector-curvature="0"
       sodipodi:nodetypes="csc" />
    <path
       style="fill:none;stroke:#000000;stroke-width:0.99005789px;stroke-linecap:butt;stroke-linejoin:miter;stroke-opacity:1;marker-start:url(#Arrow1Lstart)"
       d="m 401.16358,769.80067 c -22.9405,-5.45432 -30.45892,-6.57859 -52.66855,2.25077"
       id="path3031-5-4"
       inkscape:connector-curvature="0"
       sodipodi:nodetypes="cc" />
  </g>
</svg>
