<?xml version="1.0" encoding="UTF-8" standalone="no"?>
<!-- Created with Inkscape (http://www.inkscape.org/) -->

<svg
   xmlns:dc="http://purl.org/dc/elements/1.1/"
   xmlns:cc="http://creativecommons.org/ns#"
   xmlns:rdf="http://www.w3.org/1999/02/22-rdf-syntax-ns#"
   xmlns:svg="http://www.w3.org/2000/svg"
   xmlns="http://www.w3.org/2000/svg"
   xmlns:sodipodi="http://sodipodi.sourceforge.net/DTD/sodipodi-0.dtd"
   xmlns:inkscape="http://www.inkscape.org/namespaces/inkscape"
   width="520"
   height="418.49551"
   id="svg2"
   version="1.1"
   inkscape:version="0.48.3.1 r9886"
   sodipodi:docname="New document 1">
  <sodipodi:namedview
     id="base"
     pagecolor="#ffffff"
     bordercolor="#666666"
     borderopacity="1.0"
     inkscape:pageopacity="0.0"
     inkscape:pageshadow="2"
     inkscape:zoom="1.3407408"
     inkscape:cx="179.59406"
     inkscape:cy="171.35783"
     inkscape:document-units="px"
     inkscape:current-layer="layer1"
     showgrid="false"
     inkscape:window-width="2560"
     inkscape:window-height="1544"
     inkscape:window-x="0"
     inkscape:window-y="27"
     inkscape:window-maximized="1"
     fit-margin-top="0"
     fit-margin-left="0"
     fit-margin-right="0"
     fit-margin-bottom="0" />
  <defs
     id="defs4">
    <marker
       inkscape:stockid="Arrow1Lstart"
       orient="auto"
       refY="0"
       refX="0"
       id="Arrow1Lstart"
       style="overflow:visible">
      <path
         id="path4944"
         d="M 0,0 5,-5 -12.5,0 5,5 0,0 z"
         style="fill-rule:evenodd;stroke:#000000;stroke-width:1pt"
         transform="matrix(0.8,0,0,0.8,10,0)"
         inkscape:connector-curvature="0" />
    </marker>
    <marker
       inkscape:stockid="Arrow1Lend"
       orient="auto"
       refY="0"
       refX="0"
       id="Arrow1Lend"
       style="overflow:visible">
      <path
         id="path4947"
         d="M 0,0 5,-5 -12.5,0 5,5 0,0 z"
         style="fill-rule:evenodd;stroke:#000000;stroke-width:1pt"
         transform="matrix(-0.8,0,0,-0.8,-10,0)"
         inkscape:connector-curvature="0" />
    </marker>
    <marker
       inkscape:stockid="Arrow1Lstart"
       orient="auto"
       refY="0"
       refX="0"
       id="Arrow1Lstart-4"
       style="overflow:visible">
      <path
         inkscape:connector-curvature="0"
         id="path4944-3"
         d="M 0,0 5,-5 -12.5,0 5,5 0,0 z"
         style="fill-rule:evenodd;stroke:#000000;stroke-width:1pt"
         transform="matrix(0.8,0,0,0.8,10,0)" />
    </marker>
    <marker
       inkscape:stockid="Arrow1Lend"
       orient="auto"
       refY="0"
       refX="0"
       id="Arrow1Lend-3"
       style="overflow:visible">
      <path
         inkscape:connector-curvature="0"
         id="path4947-5"
         d="M 0,0 5,-5 -12.5,0 5,5 0,0 z"
         style="fill-rule:evenodd;stroke:#000000;stroke-width:1pt"
         transform="matrix(-0.8,0,0,-0.8,-10,0)" />
    </marker>
    <marker
       inkscape:stockid="Arrow1Lstart"
       orient="auto"
       refY="0"
       refX="0"
       id="Arrow1Lstart-9"
       style="overflow:visible">
      <path
         inkscape:connector-curvature="0"
         id="path4944-0"
         d="M 0,0 5,-5 -12.5,0 5,5 0,0 z"
         style="fill-rule:evenodd;stroke:#000000;stroke-width:1pt"
         transform="matrix(0.8,0,0,0.8,10,0)" />
    </marker>
    <marker
       inkscape:stockid="Arrow1Lend"
       orient="auto"
       refY="0"
       refX="0"
       id="Arrow1Lend-8"
       style="overflow:visible">
      <path
         inkscape:connector-curvature="0"
         id="path4947-2"
         d="M 0,0 5,-5 -12.5,0 5,5 0,0 z"
         style="fill-rule:evenodd;stroke:#000000;stroke-width:1pt"
         transform="matrix(-0.8,0,0,-0.8,-10,0)" />
    </marker>
    <marker
       inkscape:stockid="Arrow1Lstart"
       orient="auto"
       refY="0"
       refX="0"
       id="Arrow1Lstart-7"
       style="overflow:visible">
      <path
         inkscape:connector-curvature="0"
         id="path4944-05"
         d="M 0,0 5,-5 -12.5,0 5,5 0,0 z"
         style="fill-rule:evenodd;stroke:#000000;stroke-width:1pt"
         transform="matrix(0.8,0,0,0.8,10,0)" />
    </marker>
    <marker
       inkscape:stockid="Arrow1Lend"
       orient="auto"
       refY="0"
       refX="0"
       id="Arrow1Lend-39"
       style="overflow:visible">
      <path
         inkscape:connector-curvature="0"
         id="path4947-3"
         d="M 0,0 5,-5 -12.5,0 5,5 0,0 z"
         style="fill-rule:evenodd;stroke:#000000;stroke-width:1pt"
         transform="matrix(-0.8,0,0,-0.8,-10,0)" />
    </marker>
    <marker
       inkscape:stockid="Arrow1Lstart"
       orient="auto"
       refY="0"
       refX="0"
       id="Arrow1Lstart-6"
       style="overflow:visible">
      <path
         inkscape:connector-curvature="0"
         id="path4944-5"
         d="M 0,0 5,-5 -12.5,0 5,5 0,0 z"
         style="fill-rule:evenodd;stroke:#000000;stroke-width:1pt"
         transform="matrix(0.8,0,0,0.8,10,0)" />
    </marker>
    <marker
       inkscape:stockid="Arrow1Lend"
       orient="auto"
       refY="0"
       refX="0"
       id="Arrow1Lend-2"
       style="overflow:visible">
      <path
         inkscape:connector-curvature="0"
         id="path4947-6"
         d="M 0,0 5,-5 -12.5,0 5,5 0,0 z"
         style="fill-rule:evenodd;stroke:#000000;stroke-width:1pt"
         transform="matrix(-0.8,0,0,-0.8,-10,0)" />
    </marker>
    <marker
       inkscape:stockid="Arrow1Lend"
       orient="auto"
       refY="0"
       refX="0"
       id="Arrow1Lend-2-1"
       style="overflow:visible">
      <path
         inkscape:connector-curvature="0"
         id="path4947-6-6"
         d="M 0,0 5,-5 -12.5,0 5,5 0,0 z"
         style="fill-rule:evenodd;stroke:#000000;stroke-width:1pt"
         transform="matrix(-0.8,0,0,-0.8,-10,0)" />
    </marker>
    <marker
       inkscape:stockid="Arrow1Lend"
       orient="auto"
       refY="0"
       refX="0"
       id="Arrow1Lend-2-8"
       style="overflow:visible">
      <path
         inkscape:connector-curvature="0"
         id="path4947-6-9"
         d="M 0,0 5,-5 -12.5,0 5,5 0,0 z"
         style="fill-rule:evenodd;stroke:#000000;stroke-width:1pt"
         transform="matrix(-0.8,0,0,-0.8,-10,0)" />
    </marker>
    <marker
       inkscape:stockid="Arrow1Lend"
       orient="auto"
       refY="0"
       refX="0"
       id="Arrow1Lend-2-2"
       style="overflow:visible">
      <path
         inkscape:connector-curvature="0"
         id="path4947-6-1"
         d="M 0,0 5,-5 -12.5,0 5,5 0,0 z"
         style="fill-rule:evenodd;stroke:#000000;stroke-width:1pt"
         transform="matrix(-0.8,0,0,-0.8,-10,0)" />
    </marker>
    <marker
       inkscape:stockid="Arrow1Lend"
       orient="auto"
       refY="0"
       refX="0"
       id="Arrow1Lend-2-4"
       style="overflow:visible">
      <path
         inkscape:connector-curvature="0"
         id="path4947-6-0"
         d="M 0,0 5,-5 -12.5,0 5,5 0,0 z"
         style="fill-rule:evenodd;stroke:#000000;stroke-width:1pt"
         transform="matrix(-0.8,0,0,-0.8,-10,0)" />
    </marker>
    <marker
       inkscape:stockid="Arrow1Lend"
       orient="auto"
       refY="0"
       refX="0"
       id="Arrow1Lend-2-40"
       style="overflow:visible">
      <path
         inkscape:connector-curvature="0"
         id="path4947-6-15"
         d="M 0,0 5,-5 -12.5,0 5,5 0,0 z"
         style="fill-rule:evenodd;stroke:#000000;stroke-width:1pt"
         transform="matrix(-0.8,0,0,-0.8,-10,0)" />
    </marker>
  </defs>
  <metadata
     id="metadata7">
    <rdf:RDF>
      <cc:Work
         rdf:about="">
        <dc:format>image/svg+xml</dc:format>
        <dc:type
           rdf:resource="http://purl.org/dc/dcmitype/StillImage" />
        <dc:title></dc:title>
      </cc:Work>
    </rdf:RDF>
  </metadata>
  <g
     id="layer1"
     inkscape:groupmode="layer"
     inkscape:label="Layer 1"
     transform="translate(0,-333.86666)">
    <g
       id="g3854"
       transform="translate(-1.9756585e-7,-350)">
      <g
         style="font-style:normal;font-variant:normal;font-weight:normal;font-stretch:normal;letter-spacing:normal;word-spacing:normal;text-anchor:start;fill:none;stroke:#000000;stroke-linecap:butt;stroke-linejoin:miter;stroke-miterlimit:10.43299961;stroke-opacity:1;stroke-dasharray:none;stroke-dashoffset:0"
         id="g3309"
         transform="matrix(0.44943603,0,0,-0.60194708,-195.66642,1242.3946)"
         xml:space="preserve"
         stroke-miterlimit="10.433"
         font-style="normal"
         font-variant="normal"
         font-weight="normal"
         font-stretch="normal"
         font-size-adjust="none"
         letter-spacing="normal"
         word-spacing="normal"><path
           style="fill:#000000;stroke-width:0"
           inkscape:connector-curvature="0"
           d="m 501.66,436.39 0.04,0.16 0.04,0.16 0.04,0.15 0.04,0.14 0.04,0.14 0.04,0.13 0.04,0.12 0.05,0.11 0.05,0.11 0.05,0.11 0.07,0.09 0.06,0.09 0.08,0.09 0.08,0.08 0.09,0.07 0.09,0.07 0.11,0.06 0.12,0.06 0.13,0.05 0.14,0.05 0.15,0.04 0.09,0.02 0.08,0.02 0.09,0.02 0.09,0.02 0.1,0.01 0.1,0.02 0.1,0.01 0.11,0.01 0.11,0.02 0.12,0.01 0.12,0.01 0.12,0 0.13,0.01 0.13,0.01 0.14,0.01 0.14,0 0.15,0 0.15,0.01 0.16,0 0.16,0 0.17,0 0.17,0 c 1.14,0 1.6,0 1.6,1 0,0.55 -0.5,0.55 -1.35,0.55 h -6.58 c -1.29,0 -1.34,0 -1.93,-0.95 l -18.19,-28.39 -3.89,28.18 c -0.16,1.16 -0.25,1.16 -1.55,1.16 h -6.83 c -0.93,0 -1.48,0 -1.48,-0.95 0,-0.6 0.44,-0.6 1.44,-0.6 0.65,0 1.54,-0.04 2.14,-0.09 0.79,-0.11 1.09,-0.25 1.09,-0.8 0,-0.2 -0.05,-0.36 -0.19,-0.95 l -6.33,-25.36 c -0.5,-2 -1.34,-3.59 -5.39,-3.73 -0.25,0 -0.89,-0.05 -0.89,-0.96 0,-0.43 0.3,-0.59 0.71,-0.59 1.59,0 3.32,0.16 4.97,0.16 1.7,0 3.5,-0.16 5.14,-0.16 0.25,0 0.89,0 0.89,1 0,0.55 -0.55,0.55 -0.89,0.55 -2.85,0.04 -3.39,1.04 -3.39,2.18 0,0.35 0.04,0.6 0.2,1.14 l 6.76,27.16 h 0.07 l 4.28,-30.89 c 0.09,-0.59 0.14,-1.14 0.75,-1.14 0.54,0 0.84,0.55 1.09,0.89 l 20.13,31.55 h 0.04 l -7.12,-28.55 c -0.5,-1.95 -0.6,-2.34 -4.53,-2.34 -0.85,0 -1.39,0 -1.39,-0.96 0,-0.59 0.59,-0.59 0.75,-0.59 1.39,0 4.78,0.16 6.17,0.16 2.05,0 4.19,-0.16 6.23,-0.16 0.3,0 0.94,0 0.94,1 0,0.55 -0.45,0.55 -1.39,0.55 -1.84,0 -3.23,0 -3.23,0.89 0,0.2 0,0.29 0.25,1.2 z"
           id="path3311" /><path
           style="fill:#000000;stroke-width:0"
           inkscape:connector-curvature="0"
           d="m 511.05,402.95 -0.11,-0.18 -0.12,-0.16 -0.11,-0.17 -0.11,-0.15 -0.12,-0.16 -0.11,-0.14 -0.11,-0.14 -0.12,-0.14 -0.12,-0.13 -0.11,-0.12 -0.12,-0.12 -0.12,-0.11 -0.12,-0.11 -0.12,-0.11 -0.13,-0.09 -0.13,-0.1 -0.13,-0.08 -0.13,-0.09 -0.14,-0.07 -0.14,-0.08 -0.14,-0.06 -0.14,-0.07 -0.15,-0.05 -0.16,-0.06 -0.15,-0.04 -0.16,-0.05 -0.17,-0.04 -0.17,-0.03 -0.17,-0.03 -0.18,-0.02 -0.19,-0.02 -0.19,-0.02 c -0.34,-0.03 -0.8,-0.03 -0.8,-0.73 0,-0.38 0.32,-0.52 0.49,-0.52 0.9,0 2.06,0.14 3,0.14 1.11,0 2.54,-0.14 3.59,-0.14 0.17,0 0.69,0 0.69,0.77 0,0.45 -0.45,0.48 -0.58,0.48 -0.28,0.05 -1.55,0.11 -1.55,1.05 0,0.42 0.36,1.01 0.53,1.33 l 2.79,4.31 h 9.96 l -0.17,1.26 h -8.95 l 7.31,11.4 1.64,-11.4 0.17,-1.26 0.85,-5.78 c -0.14,-0.35 -0.36,-0.91 -2.41,-0.91 -0.42,0 -0.9,0 -0.9,-0.76 0,-0.14 0.09,-0.49 0.54,-0.49 1.02,0 3.49,0.14 4.5,0.14 0.63,0 1.42,-0.03 2.07,-0.03 0.62,-0.05 1.35,-0.11 1.98,-0.11 0.45,0 0.69,0.28 0.69,0.74 0,0.51 -0.41,0.51 -0.97,0.51 -2.02,0 -2.1,0.28 -2.2,1.13 l -3.07,21.5 c -0.11,0.72 -0.17,0.97 -0.83,0.97 -0.67,0 -0.87,-0.32 -1.18,-0.8 z"
           id="path3313" /><path
           style="fill:#000000;stroke-width:0"
           inkscape:connector-curvature="0"
           d="m 582.42,436.39 0.04,0.16 0.04,0.16 0.04,0.15 0.04,0.14 0.04,0.14 0.04,0.13 0.04,0.12 0.05,0.11 0.05,0.11 0.06,0.11 0.06,0.09 0.06,0.09 0.08,0.09 0.08,0.08 0.09,0.07 0.1,0.07 0.1,0.06 0.12,0.06 0.13,0.05 0.14,0.05 0.16,0.04 0.08,0.02 0.08,0.02 0.09,0.02 0.09,0.02 0.1,0.01 0.1,0.02 0.1,0.01 0.11,0.01 0.11,0.02 0.12,0.01 0.12,0.01 0.12,0 0.13,0.01 0.13,0.01 0.14,0.01 0.15,0 0.14,0 0.15,0.01 0.16,0 0.16,0 0.17,0 0.17,0 c 1.14,0 1.6,0 1.6,1 0,0.55 -0.5,0.55 -1.35,0.55 h -6.57 c -1.3,0 -1.35,0 -1.94,-0.95 l -18.19,-28.39 -3.89,28.18 c -0.16,1.16 -0.25,1.16 -1.55,1.16 h -6.83 c -0.93,0 -1.48,0 -1.48,-0.95 0,-0.6 0.44,-0.6 1.44,-0.6 0.65,0 1.54,-0.04 2.14,-0.09 0.8,-0.11 1.09,-0.25 1.09,-0.8 0,-0.2 -0.05,-0.36 -0.19,-0.95 l -6.32,-25.36 c -0.5,-2 -1.35,-3.59 -5.39,-3.73 -0.25,0 -0.89,-0.05 -0.89,-0.96 0,-0.43 0.29,-0.59 0.7,-0.59 1.59,0 3.33,0.16 4.97,0.16 1.7,0 3.5,-0.16 5.14,-0.16 0.25,0 0.89,0 0.89,1 0,0.55 -0.55,0.55 -0.89,0.55 -2.85,0.04 -3.39,1.04 -3.39,2.18 0,0.35 0.04,0.6 0.2,1.14 l 6.77,27.16 h 0.06 l 4.28,-30.89 c 0.09,-0.59 0.14,-1.14 0.75,-1.14 0.55,0 0.84,0.55 1.09,0.89 l 20.13,31.55 h 0.04 L 572,410.09 c -0.5,-1.95 -0.59,-2.34 -4.53,-2.34 -0.85,0 -1.39,0 -1.39,-0.96 0,-0.59 0.59,-0.59 0.75,-0.59 1.39,0 4.78,0.16 6.17,0.16 2.05,0 4.19,-0.16 6.23,-0.16 0.3,0 0.94,0 0.94,1 0,0.55 -0.45,0.55 -1.39,0.55 -1.84,0 -3.23,0 -3.23,0.89 0,0.2 0,0.29 0.25,1.2 z"
           id="path3315" /><path
           style="fill:#000000;stroke-width:0"
           inkscape:connector-curvature="0"
           d="m 591.27,401.48 -0.03,-0.11 -0.03,-0.1 -0.03,-0.1 -0.03,-0.09 -0.02,-0.09 -0.03,-0.09 -0.04,-0.08 -0.03,-0.07 -0.04,-0.07 -0.04,-0.07 -0.04,-0.06 -0.05,-0.06 -0.05,-0.05 -0.06,-0.05 -0.06,-0.05 -0.07,-0.04 -0.08,-0.04 -0.09,-0.03 -0.09,-0.04 -0.1,-0.03 -0.11,-0.02 -0.06,-0.02 -0.06,-0.01 -0.06,-0.01 -0.07,-0.01 -0.07,-0.01 -0.07,-0.01 -0.08,0 -0.07,-0.01 -0.08,-0.01 -0.09,0 -0.08,-0.01 -0.09,-0.01 -0.1,0 -0.09,0 -0.1,-0.01 -0.1,0 -0.11,0 -0.11,0 -0.11,-0.01 -0.12,0 -0.12,0 -0.12,0 c -0.58,0 -1.03,0 -1.03,-0.73 0,-0.52 0.4,-0.52 1.03,-0.52 h 13.48 c 5.86,0 10.36,4 10.36,7.45 0,2.49 -2.26,4.61 -5.97,4.99 4.22,0.76 7.75,3.42 7.75,6.41 0,2.65 -2.69,4.95 -7.22,4.95 l -0.56,-1.25 c 3.56,0 4.36,-2.35 4.36,-3.66 0,-2.83 -3.17,-6.03 -7.84,-6.03 h -5.71 l -0.25,-0.98 h 7.39 c 3.27,0 4.54,-2.16 4.54,-4.18 0,-3.45 -3.54,-6.45 -7.74,-6.45 h -5.62 c -1.08,0 -1.11,0.05 -1.11,0.36 0,0.03 0,0.2 0.14,0.72 l 2.4,9.55 0.25,0.98 2.13,8.5 c 0.26,1.08 0.31,1.19 1.76,1.19 h 5.3 l 0.56,1.25 h -12.68 c -0.66,0 -1.11,0 -1.11,-0.77 0,-0.48 0.42,-0.48 1.11,-0.48 0.03,0 0.7,0 1.32,-0.08 0.74,-0.06 0.8,-0.14 0.8,-0.48 0,-0.07 0,-0.24 -0.14,-0.77 z"
           id="path3317" /><path
           style="fill:#000000;stroke-width:0"
           inkscape:connector-curvature="0"
           d="m 634.05,421.95 0.21,1.28 3.39,13.56 c 0.44,1.74 0.55,1.89 2.69,1.89 h 4.78 c 4.14,0 6.78,-1.34 6.78,-4.78 0,-1.95 -1,-6.23 -2.94,-8.03 -2.5,-2.23 -5.48,-2.64 -7.69,-2.64 h -7.01 l -0.21,-1.28 h 8.47 c 7.08,0 14,5.17 14,10.75 0,3.84 -3.28,7.53 -9.81,7.53 h -16.14 c -0.95,0 -1.5,0 -1.5,-0.95 0,-0.6 0.45,-0.6 1.45,-0.6 0.64,0 1.55,-0.04 2.14,-0.09 0.8,-0.11 1.1,-0.25 1.1,-0.8 0,-0.2 -0.05,-0.36 -0.21,-0.95 l -6.67,-26.75 c -0.5,-1.95 -0.59,-2.34 -4.53,-2.34 -0.84,0 -1.39,0 -1.39,-0.96 0,-0.59 0.59,-0.59 0.74,-0.59 1.4,0 4.93,0.16 6.32,0.16 1.05,0 2.14,-0.07 3.19,-0.07 1.11,0 2.2,-0.09 3.25,-0.09 0.34,0 0.99,0 0.99,1 0,0.55 -0.44,0.55 -1.4,0.55 -1.84,0 -3.23,0 -3.23,0.89 0,0.29 0.09,0.54 0.14,0.84 z"
           id="path3319" /><path
           style="fill:#000000;stroke-width:0"
           inkscape:connector-curvature="0"
           d="m 657.62,401.48 -0.02,-0.11 -0.03,-0.1 -0.03,-0.1 -0.03,-0.09 -0.03,-0.09 -0.03,-0.09 -0.03,-0.08 -0.03,-0.07 -0.04,-0.07 -0.04,-0.07 -0.04,-0.06 -0.05,-0.06 -0.05,-0.05 -0.06,-0.05 -0.06,-0.05 -0.07,-0.04 -0.08,-0.04 -0.09,-0.03 -0.09,-0.04 -0.1,-0.03 -0.11,-0.02 -0.06,-0.02 -0.06,-0.01 -0.07,-0.01 -0.06,-0.01 -0.07,-0.01 -0.07,-0.01 -0.08,0 -0.07,-0.01 -0.08,-0.01 -0.09,0 -0.08,-0.01 -0.09,-0.01 -0.1,0 -0.09,0 -0.1,-0.01 -0.1,0 -0.11,0 -0.11,0 -0.11,-0.01 -0.12,0 -0.12,0 -0.12,0 c -0.58,0 -1.03,0 -1.03,-0.73 0,-0.52 0.4,-0.52 1.03,-0.52 h 13.48 c 5.86,0 10.36,4 10.36,7.45 0,2.49 -2.27,4.61 -5.97,4.99 4.22,0.76 7.75,3.42 7.75,6.41 0,2.65 -2.69,4.95 -7.22,4.95 l -0.56,-1.25 c 3.56,0 4.36,-2.35 4.36,-3.66 0,-2.83 -3.17,-6.03 -7.84,-6.03 h -5.71 l -0.25,-0.98 h 7.39 c 3.27,0 4.54,-2.16 4.54,-4.18 0,-3.45 -3.54,-6.45 -7.74,-6.45 h -5.62 c -1.08,0 -1.11,0.05 -1.11,0.36 0,0.03 0,0.2 0.14,0.72 l 2.4,9.55 0.25,0.98 2.13,8.5 c 0.26,1.08 0.31,1.19 1.76,1.19 h 5.3 l 0.56,1.25 h -12.68 c -0.66,0 -1.11,0 -1.11,-0.77 0,-0.48 0.42,-0.48 1.11,-0.48 0.03,0 0.7,0 1.32,-0.08 0.74,-0.06 0.8,-0.14 0.8,-0.48 0,-0.07 0,-0.24 -0.14,-0.77 z"
           id="path3321" /></g>      <path
         transform="matrix(0.88665495,0,0,0.88665495,-60.018007,807.15343)"
         sodipodi:type="arc"
         style="fill:none;stroke:#000000;stroke-width:2;stroke-linecap:butt;stroke-miterlimit:4;stroke-dasharray:none"
         id="path3200"
         sodipodi:cx="135.36044"
         sodipodi:cy="208.88481"
         sodipodi:rx="66.670067"
         sodipodi:ry="66.670067"
         d="m 202.03051,208.88481 c 0,36.82086 -29.84921,66.67007 -66.67007,66.67007 -36.820858,0 -66.670064,-29.84921 -66.670064,-66.67007 0,-36.82086 29.849206,-66.67007 66.670064,-66.67007 36.82086,0 66.67007,29.84921 66.67007,66.67007 z" />
    </g>
    <g
       id="g3874"
       transform="translate(400,-350)">
      <g
         id="g3659"
         transform="matrix(0.42613733,0,0,0.56712127,-118.01685,795.14008)">
        <g
           word-spacing="normal"
           letter-spacing="normal"
           font-size-adjust="none"
           font-stretch="normal"
           font-weight="normal"
           font-variant="normal"
           font-style="normal"
           stroke-miterlimit="10.433"
           xml:space="preserve"
           transform="matrix(1.0629921,0,0,-1.0629921,-186.02362,789.27165)"
           id="g3661"
           style="font-style:normal;font-variant:normal;font-weight:normal;font-stretch:normal;letter-spacing:normal;word-spacing:normal;text-anchor:start;fill:none;stroke:#000000;stroke-linecap:butt;stroke-linejoin:miter;stroke-miterlimit:10.43299961;stroke-opacity:1;stroke-dasharray:none;stroke-dashoffset:0"><path
             id="path3663"
             d="m 501.66,436.39 0.04,0.16 0.04,0.16 0.04,0.15 0.04,0.14 0.04,0.14 0.04,0.13 0.04,0.12 0.05,0.11 0.05,0.11 0.05,0.11 0.07,0.09 0.06,0.09 0.08,0.09 0.08,0.08 0.09,0.07 0.09,0.07 0.11,0.06 0.12,0.06 0.13,0.05 0.14,0.05 0.15,0.04 0.09,0.02 0.08,0.02 0.09,0.02 0.09,0.02 0.1,0.01 0.1,0.02 0.1,0.01 0.11,0.01 0.11,0.02 0.12,0.01 0.12,0.01 0.12,0 0.13,0.01 0.13,0.01 0.14,0.01 0.14,0 0.15,0 0.15,0.01 0.16,0 0.16,0 0.17,0 0.17,0 c 1.14,0 1.6,0 1.6,1 0,0.55 -0.5,0.55 -1.35,0.55 h -6.58 c -1.29,0 -1.34,0 -1.93,-0.95 l -18.19,-28.39 -3.89,28.18 c -0.16,1.16 -0.25,1.16 -1.55,1.16 h -6.83 c -0.93,0 -1.48,0 -1.48,-0.95 0,-0.6 0.44,-0.6 1.44,-0.6 0.65,0 1.54,-0.04 2.14,-0.09 0.79,-0.11 1.09,-0.25 1.09,-0.8 0,-0.2 -0.05,-0.36 -0.19,-0.95 l -6.33,-25.36 c -0.5,-2 -1.34,-3.59 -5.39,-3.73 -0.25,0 -0.89,-0.05 -0.89,-0.96 0,-0.43 0.3,-0.59 0.71,-0.59 1.59,0 3.32,0.16 4.97,0.16 1.7,0 3.5,-0.16 5.14,-0.16 0.25,0 0.89,0 0.89,1 0,0.55 -0.55,0.55 -0.89,0.55 -2.85,0.04 -3.39,1.04 -3.39,2.18 0,0.35 0.04,0.6 0.2,1.14 l 6.76,27.16 h 0.07 l 4.28,-30.89 c 0.09,-0.59 0.14,-1.14 0.75,-1.14 0.54,0 0.84,0.55 1.09,0.89 l 20.13,31.55 h 0.04 l -7.12,-28.55 c -0.5,-1.95 -0.6,-2.34 -4.53,-2.34 -0.85,0 -1.39,0 -1.39,-0.96 0,-0.59 0.59,-0.59 0.75,-0.59 1.39,0 4.78,0.16 6.17,0.16 2.05,0 4.19,-0.16 6.23,-0.16 0.3,0 0.94,0 0.94,1 0,0.55 -0.45,0.55 -1.39,0.55 -1.84,0 -3.23,0 -3.23,0.89 0,0.2 0,0.29 0.25,1.2 z"
             inkscape:connector-curvature="0"
             style="fill:#000000;stroke-width:0" /><path
             id="path3665"
             d="m 511.05,402.95 -0.11,-0.18 -0.12,-0.16 -0.11,-0.17 -0.11,-0.15 -0.12,-0.16 -0.11,-0.14 -0.11,-0.14 -0.12,-0.14 -0.12,-0.13 -0.11,-0.12 -0.12,-0.12 -0.12,-0.11 -0.12,-0.11 -0.12,-0.11 -0.13,-0.09 -0.13,-0.1 -0.13,-0.08 -0.13,-0.09 -0.14,-0.07 -0.14,-0.08 -0.14,-0.06 -0.14,-0.07 -0.15,-0.05 -0.16,-0.06 -0.15,-0.04 -0.16,-0.05 -0.17,-0.04 -0.17,-0.03 -0.17,-0.03 -0.18,-0.02 -0.19,-0.02 -0.19,-0.02 c -0.34,-0.03 -0.8,-0.03 -0.8,-0.73 0,-0.38 0.32,-0.52 0.49,-0.52 0.9,0 2.06,0.14 3,0.14 1.11,0 2.54,-0.14 3.59,-0.14 0.17,0 0.69,0 0.69,0.77 0,0.45 -0.45,0.48 -0.58,0.48 -0.28,0.05 -1.55,0.11 -1.55,1.05 0,0.42 0.36,1.01 0.53,1.33 l 2.79,4.31 h 9.96 l -0.17,1.26 h -8.95 l 7.31,11.4 1.64,-11.4 0.17,-1.26 0.85,-5.78 c -0.14,-0.35 -0.36,-0.91 -2.41,-0.91 -0.42,0 -0.9,0 -0.9,-0.76 0,-0.14 0.09,-0.49 0.54,-0.49 1.02,0 3.49,0.14 4.5,0.14 0.63,0 1.42,-0.03 2.07,-0.03 0.62,-0.05 1.35,-0.11 1.98,-0.11 0.45,0 0.69,0.28 0.69,0.74 0,0.51 -0.41,0.51 -0.97,0.51 -2.02,0 -2.1,0.28 -2.2,1.13 l -3.07,21.5 c -0.11,0.72 -0.17,0.97 -0.83,0.97 -0.67,0 -0.87,-0.32 -1.18,-0.8 z"
             inkscape:connector-curvature="0"
             style="fill:#000000;stroke-width:0" /><path
             id="path3667"
             d="m 582.42,436.39 0.04,0.16 0.04,0.16 0.04,0.15 0.04,0.14 0.04,0.14 0.04,0.13 0.04,0.12 0.05,0.11 0.05,0.11 0.06,0.11 0.06,0.09 0.06,0.09 0.08,0.09 0.08,0.08 0.09,0.07 0.1,0.07 0.1,0.06 0.12,0.06 0.13,0.05 0.14,0.05 0.16,0.04 0.08,0.02 0.08,0.02 0.09,0.02 0.09,0.02 0.1,0.01 0.1,0.02 0.1,0.01 0.11,0.01 0.11,0.02 0.12,0.01 0.12,0.01 0.12,0 0.13,0.01 0.13,0.01 0.14,0.01 0.15,0 0.14,0 0.15,0.01 0.16,0 0.16,0 0.17,0 0.17,0 c 1.14,0 1.6,0 1.6,1 0,0.55 -0.5,0.55 -1.35,0.55 h -6.57 c -1.3,0 -1.35,0 -1.94,-0.95 l -18.19,-28.39 -3.89,28.18 c -0.16,1.16 -0.25,1.16 -1.55,1.16 h -6.83 c -0.93,0 -1.48,0 -1.48,-0.95 0,-0.6 0.44,-0.6 1.44,-0.6 0.65,0 1.54,-0.04 2.14,-0.09 0.8,-0.11 1.09,-0.25 1.09,-0.8 0,-0.2 -0.05,-0.36 -0.19,-0.95 l -6.32,-25.36 c -0.5,-2 -1.35,-3.59 -5.39,-3.73 -0.25,0 -0.89,-0.05 -0.89,-0.96 0,-0.43 0.29,-0.59 0.7,-0.59 1.59,0 3.33,0.16 4.97,0.16 1.7,0 3.5,-0.16 5.14,-0.16 0.25,0 0.89,0 0.89,1 0,0.55 -0.55,0.55 -0.89,0.55 -2.85,0.04 -3.39,1.04 -3.39,2.18 0,0.35 0.04,0.6 0.2,1.14 l 6.77,27.16 h 0.06 l 4.28,-30.89 c 0.09,-0.59 0.14,-1.14 0.75,-1.14 0.55,0 0.84,0.55 1.09,0.89 l 20.13,31.55 h 0.04 L 572,410.09 c -0.5,-1.95 -0.59,-2.34 -4.53,-2.34 -0.85,0 -1.39,0 -1.39,-0.96 0,-0.59 0.59,-0.59 0.75,-0.59 1.39,0 4.78,0.16 6.17,0.16 2.05,0 4.19,-0.16 6.23,-0.16 0.3,0 0.94,0 0.94,1 0,0.55 -0.45,0.55 -1.39,0.55 -1.84,0 -3.23,0 -3.23,0.89 0,0.2 0,0.29 0.25,1.2 z"
             inkscape:connector-curvature="0"
             style="fill:#000000;stroke-width:0" /><path
             id="path3669"
             d="m 591.81,402.95 -0.11,-0.18 -0.12,-0.16 -0.11,-0.17 -0.11,-0.15 -0.12,-0.16 -0.11,-0.14 -0.11,-0.14 -0.12,-0.14 -0.11,-0.13 -0.12,-0.12 -0.12,-0.12 -0.12,-0.11 -0.12,-0.11 -0.12,-0.11 -0.13,-0.09 -0.13,-0.1 -0.13,-0.08 -0.13,-0.09 -0.14,-0.07 -0.13,-0.08 -0.15,-0.06 -0.14,-0.07 -0.15,-0.05 -0.15,-0.06 -0.16,-0.04 -0.16,-0.05 -0.17,-0.04 -0.17,-0.03 -0.17,-0.03 -0.18,-0.02 -0.19,-0.02 -0.19,-0.02 c -0.34,-0.03 -0.8,-0.03 -0.8,-0.73 0,-0.38 0.32,-0.52 0.49,-0.52 0.91,0 2.06,0.14 3,0.14 1.11,0 2.55,-0.14 3.59,-0.14 0.18,0 0.69,0 0.69,0.77 0,0.45 -0.45,0.48 -0.58,0.48 -0.28,0.05 -1.54,0.11 -1.54,1.05 0,0.42 0.35,1.01 0.53,1.33 l 2.78,4.31 h 9.97 l -0.17,1.26 h -8.96 l 7.31,11.4 1.65,-11.4 0.17,-1.26 0.84,-5.78 c -0.14,-0.35 -0.36,-0.91 -2.41,-0.91 -0.42,0 -0.9,0 -0.9,-0.76 0,-0.14 0.09,-0.49 0.54,-0.49 1.02,0 3.49,0.14 4.5,0.14 0.63,0 1.43,-0.03 2.07,-0.03 0.62,-0.05 1.36,-0.11 1.98,-0.11 0.45,0 0.69,0.28 0.69,0.74 0,0.51 -0.41,0.51 -0.97,0.51 -2.01,0 -2.09,0.28 -2.2,1.13 l -3.07,21.5 c -0.1,0.72 -0.17,0.97 -0.82,0.97 -0.68,0 -0.88,-0.32 -1.19,-0.8 z"
             inkscape:connector-curvature="0"
             style="fill:#000000;stroke-width:0" /><path
             id="path3671"
             d="m 632.25,421.95 0.21,1.28 3.39,13.56 c 0.43,1.74 0.55,1.89 2.68,1.89 h 4.79 c 4.14,0 6.78,-1.34 6.78,-4.78 0,-1.95 -1,-6.23 -2.94,-8.03 -2.5,-2.23 -5.48,-2.64 -7.69,-2.64 h -7.01 l -0.21,-1.28 h 8.47 c 7.08,0 14,5.17 14,10.75 0,3.84 -3.28,7.53 -9.81,7.53 h -16.14 c -0.95,0 -1.5,0 -1.5,-0.95 0,-0.6 0.45,-0.6 1.45,-0.6 0.64,0 1.55,-0.04 2.14,-0.09 0.8,-0.11 1.1,-0.25 1.1,-0.8 0,-0.2 -0.05,-0.36 -0.21,-0.95 l -6.67,-26.75 c -0.5,-1.95 -0.59,-2.34 -4.53,-2.34 -0.84,0 -1.39,0 -1.39,-0.96 0,-0.59 0.59,-0.59 0.74,-0.59 1.4,0 4.93,0.16 6.32,0.16 1.05,0 2.14,-0.07 3.19,-0.07 1.11,0 2.2,-0.09 3.25,-0.09 0.34,0 0.99,0 0.99,1 0,0.55 -0.44,0.55 -1.4,0.55 -1.84,0 -3.23,0 -3.23,0.89 0,0.29 0.09,0.54 0.14,0.84 z"
             inkscape:connector-curvature="0"
             style="fill:#000000;stroke-width:0" /><path
             id="path3673"
             d="m 655.82,401.48 -0.02,-0.11 -0.03,-0.1 -0.03,-0.1 -0.03,-0.09 -0.03,-0.09 -0.03,-0.09 -0.03,-0.08 -0.03,-0.07 -0.04,-0.07 -0.04,-0.07 -0.04,-0.06 -0.05,-0.06 -0.05,-0.05 -0.06,-0.05 -0.06,-0.05 -0.07,-0.04 -0.08,-0.04 -0.09,-0.03 -0.09,-0.04 -0.1,-0.03 -0.11,-0.02 -0.06,-0.02 -0.06,-0.01 -0.07,-0.01 -0.06,-0.01 -0.07,-0.01 -0.07,-0.01 -0.08,0 -0.07,-0.01 -0.09,-0.01 -0.08,0 -0.08,-0.01 -0.09,-0.01 -0.1,0 -0.09,0 -0.1,-0.01 -0.1,0 -0.11,0 -0.11,0 -0.11,-0.01 -0.12,0 -0.12,0 -0.12,0 c -0.58,0 -1.03,0 -1.03,-0.73 0,-0.52 0.4,-0.52 1.03,-0.52 h 13.48 c 5.86,0 10.36,4 10.36,7.45 0,2.49 -2.27,4.61 -5.97,4.99 4.22,0.76 7.75,3.42 7.75,6.41 0,2.65 -2.69,4.95 -7.22,4.95 l -0.56,-1.25 c 3.56,0 4.36,-2.35 4.36,-3.66 0,-2.83 -3.17,-6.03 -7.85,-6.03 h -5.7 l -0.25,-0.98 h 7.39 c 3.27,0 4.53,-2.16 4.53,-4.18 0,-3.45 -3.53,-6.45 -7.73,-6.45 h -5.62 c -1.08,0 -1.12,0.05 -1.12,0.36 0,0.03 0,0.2 0.15,0.72 l 2.4,9.55 0.25,0.98 2.13,8.5 c 0.26,1.08 0.31,1.19 1.76,1.19 h 5.3 l 0.56,1.25 h -12.68 c -0.66,0 -1.12,0 -1.12,-0.77 0,-0.48 0.43,-0.48 1.12,-0.48 0.03,0 0.7,0 1.32,-0.08 0.74,-0.06 0.8,-0.14 0.8,-0.48 0,-0.07 0,-0.24 -0.14,-0.77 z"
             inkscape:connector-curvature="0"
             style="fill:#000000;stroke-width:0" /></g>      </g>
      <path
         transform="matrix(0.88665495,0,0,0.88665495,-60.018007,807.15343)"
         sodipodi:type="arc"
         style="fill:none;stroke:#000000;stroke-width:2;stroke-linecap:butt;stroke-miterlimit:4;stroke-dasharray:none"
         id="path3200-3"
         sodipodi:cx="135.36044"
         sodipodi:cy="208.88481"
         sodipodi:rx="66.670067"
         sodipodi:ry="66.670067"
         d="m 202.03051,208.88481 c 0,36.82086 -29.84921,66.67007 -66.67007,66.67007 -36.820858,0 -66.670064,-29.84921 -66.670064,-66.67007 0,-36.82086 29.849206,-66.67007 66.670064,-66.67007 36.82086,0 66.67007,29.84921 66.67007,66.67007 z" />
    </g>
    <g
       id="g3910"
       transform="translate(200,-350)">
      <g
         transform="matrix(0.41929968,0,0,0.56712127,-115.96274,795.14008)"
         id="g3381">
        <g
           style="font-style:normal;font-variant:normal;font-weight:normal;font-stretch:normal;letter-spacing:normal;word-spacing:normal;text-anchor:start;fill:none;stroke:#000000;stroke-linecap:butt;stroke-linejoin:miter;stroke-miterlimit:10.43299961;stroke-opacity:1;stroke-dasharray:none;stroke-dashoffset:0"
           id="g3383"
           transform="matrix(1.0629921,0,0,-1.0629921,-186.02362,789.27165)"
           xml:space="preserve"
           stroke-miterlimit="10.433"
           font-style="normal"
           font-variant="normal"
           font-weight="normal"
           font-stretch="normal"
           font-size-adjust="none"
           letter-spacing="normal"
           word-spacing="normal"><path
             style="fill:#000000;stroke-width:0"
             inkscape:connector-curvature="0"
             d="m 501.66,436.39 0.04,0.16 0.04,0.16 0.04,0.15 0.04,0.14 0.04,0.14 0.04,0.13 0.04,0.12 0.05,0.11 0.05,0.11 0.05,0.11 0.07,0.09 0.06,0.09 0.08,0.09 0.08,0.08 0.09,0.07 0.09,0.07 0.11,0.06 0.12,0.06 0.13,0.05 0.14,0.05 0.15,0.04 0.09,0.02 0.08,0.02 0.09,0.02 0.09,0.02 0.1,0.01 0.1,0.02 0.1,0.01 0.11,0.01 0.11,0.02 0.12,0.01 0.12,0.01 0.12,0 0.13,0.01 0.13,0.01 0.14,0.01 0.14,0 0.15,0 0.15,0.01 0.16,0 0.16,0 0.17,0 0.17,0 c 1.14,0 1.6,0 1.6,1 0,0.55 -0.5,0.55 -1.35,0.55 h -6.58 c -1.29,0 -1.34,0 -1.93,-0.95 l -18.19,-28.39 -3.89,28.18 c -0.16,1.16 -0.25,1.16 -1.55,1.16 h -6.83 c -0.93,0 -1.48,0 -1.48,-0.95 0,-0.6 0.44,-0.6 1.44,-0.6 0.65,0 1.54,-0.04 2.14,-0.09 0.79,-0.11 1.09,-0.25 1.09,-0.8 0,-0.2 -0.05,-0.36 -0.19,-0.95 l -6.33,-25.36 c -0.5,-2 -1.34,-3.59 -5.39,-3.73 -0.25,0 -0.89,-0.05 -0.89,-0.96 0,-0.43 0.3,-0.59 0.71,-0.59 1.59,0 3.32,0.16 4.97,0.16 1.7,0 3.5,-0.16 5.14,-0.16 0.25,0 0.89,0 0.89,1 0,0.55 -0.55,0.55 -0.89,0.55 -2.85,0.04 -3.39,1.04 -3.39,2.18 0,0.35 0.04,0.6 0.2,1.14 l 6.76,27.16 h 0.07 l 4.28,-30.89 c 0.09,-0.59 0.14,-1.14 0.75,-1.14 0.54,0 0.84,0.55 1.09,0.89 l 20.13,31.55 h 0.04 l -7.12,-28.55 c -0.5,-1.95 -0.6,-2.34 -4.53,-2.34 -0.85,0 -1.39,0 -1.39,-0.96 0,-0.59 0.59,-0.59 0.75,-0.59 1.39,0 4.78,0.16 6.17,0.16 2.05,0 4.19,-0.16 6.23,-0.16 0.3,0 0.94,0 0.94,1 0,0.55 -0.45,0.55 -1.39,0.55 -1.84,0 -3.23,0 -3.23,0.89 0,0.2 0,0.29 0.25,1.2 z"
             id="path3385" /><path
             style="fill:#000000;stroke-width:0"
             inkscape:connector-curvature="0"
             d="m 510.5,401.48 -0.02,-0.11 -0.03,-0.1 -0.03,-0.1 -0.03,-0.09 -0.03,-0.09 -0.03,-0.09 -0.03,-0.08 -0.03,-0.07 -0.04,-0.07 -0.04,-0.07 -0.04,-0.06 -0.05,-0.06 -0.05,-0.05 -0.06,-0.05 -0.06,-0.05 -0.07,-0.04 -0.08,-0.04 -0.09,-0.03 -0.09,-0.04 -0.1,-0.03 -0.11,-0.02 -0.06,-0.02 -0.06,-0.01 -0.07,-0.01 -0.06,-0.01 -0.07,-0.01 -0.07,-0.01 -0.08,0 -0.08,-0.01 -0.08,-0.01 -0.08,0 -0.09,-0.01 -0.08,-0.01 -0.1,0 -0.09,0 -0.1,-0.01 -0.1,0 -0.11,0 -0.11,0 -0.11,-0.01 -0.12,0 -0.12,0 -0.12,0 c -0.58,0 -1.04,0 -1.04,-0.73 0,-0.52 0.41,-0.52 1.04,-0.52 h 13.48 c 5.86,0 10.36,4 10.36,7.45 0,2.49 -2.27,4.61 -5.97,4.99 4.22,0.76 7.75,3.42 7.75,6.41 0,2.65 -2.69,4.95 -7.22,4.95 l -0.56,-1.25 c 3.56,0 4.36,-2.35 4.36,-3.66 0,-2.83 -3.17,-6.03 -7.85,-6.03 h -5.7 l -0.25,-0.98 h 7.39 c 3.27,0 4.53,-2.16 4.53,-4.18 0,-3.45 -3.53,-6.45 -7.73,-6.45 h -5.62 c -1.08,0 -1.12,0.05 -1.12,0.36 0,0.03 0,0.2 0.15,0.72 l 2.4,9.55 0.25,0.98 2.13,8.5 c 0.26,1.08 0.31,1.19 1.76,1.19 h 5.3 l 0.56,1.25 h -12.68 c -0.66,0 -1.12,0 -1.12,-0.77 0,-0.48 0.43,-0.48 1.12,-0.48 0.03,0 0.7,0 1.32,-0.08 0.74,-0.06 0.8,-0.14 0.8,-0.48 0,-0.07 0,-0.24 -0.14,-0.77 z"
             id="path3387" /><path
             style="fill:#000000;stroke-width:0"
             inkscape:connector-curvature="0"
             d="m 584.34,436.39 0.04,0.16 0.04,0.16 0.04,0.15 0.04,0.14 0.04,0.14 0.04,0.13 0.04,0.12 0.05,0.11 0.05,0.11 0.05,0.11 0.07,0.09 0.06,0.09 0.08,0.09 0.08,0.08 0.09,0.07 0.09,0.07 0.11,0.06 0.12,0.06 0.13,0.05 0.14,0.05 0.15,0.04 0.09,0.02 0.08,0.02 0.09,0.02 0.09,0.02 0.1,0.01 0.1,0.02 0.1,0.01 0.11,0.01 0.11,0.02 0.12,0.01 0.12,0.01 0.12,0 0.13,0.01 0.13,0.01 0.14,0.01 0.14,0 0.15,0 0.15,0.01 0.16,0 0.16,0 0.17,0 0.17,0 c 1.14,0 1.6,0 1.6,1 0,0.55 -0.5,0.55 -1.35,0.55 h -6.58 c -1.29,0 -1.34,0 -1.94,-0.95 l -18.18,-28.39 -3.89,28.18 c -0.16,1.16 -0.25,1.16 -1.55,1.16 h -6.83 c -0.93,0 -1.48,0 -1.48,-0.95 0,-0.6 0.43,-0.6 1.43,-0.6 0.66,0 1.55,-0.04 2.15,-0.09 0.79,-0.11 1.09,-0.25 1.09,-0.8 0,-0.2 -0.05,-0.36 -0.19,-0.95 l -6.33,-25.36 c -0.5,-2 -1.34,-3.59 -5.39,-3.73 -0.25,0 -0.89,-0.05 -0.89,-0.96 0,-0.43 0.3,-0.59 0.71,-0.59 1.59,0 3.32,0.16 4.97,0.16 1.7,0 3.5,-0.16 5.13,-0.16 0.25,0 0.9,0 0.9,1 0,0.55 -0.55,0.55 -0.9,0.55 -2.84,0.04 -3.38,1.04 -3.38,2.18 0,0.35 0.04,0.6 0.2,1.14 l 6.76,27.16 h 0.07 l 4.28,-30.89 c 0.09,-0.59 0.14,-1.14 0.75,-1.14 0.54,0 0.84,0.55 1.09,0.89 L 581,438.64 h 0.04 l -7.12,-28.55 c -0.5,-1.95 -0.6,-2.34 -4.53,-2.34 -0.85,0 -1.39,0 -1.39,-0.96 0,-0.59 0.59,-0.59 0.75,-0.59 1.39,0 4.78,0.16 6.17,0.16 2.05,0 4.18,-0.16 6.23,-0.16 0.3,0 0.94,0 0.94,1 0,0.55 -0.45,0.55 -1.39,0.55 -1.85,0 -3.23,0 -3.23,0.89 0,0.2 0,0.29 0.25,1.2 z"
             id="path3389" /><path
             style="fill:#000000;stroke-width:0"
             inkscape:connector-curvature="0"
             d="m 593.18,401.48 -0.02,-0.11 -0.03,-0.1 -0.03,-0.1 -0.03,-0.09 -0.03,-0.09 -0.03,-0.09 -0.03,-0.08 -0.03,-0.07 -0.04,-0.07 -0.04,-0.07 -0.04,-0.06 -0.05,-0.06 -0.05,-0.05 -0.06,-0.05 -0.06,-0.05 -0.07,-0.04 -0.08,-0.04 -0.09,-0.03 -0.09,-0.04 -0.1,-0.03 -0.11,-0.02 -0.06,-0.02 -0.06,-0.01 -0.07,-0.01 -0.06,-0.01 -0.07,-0.01 -0.07,-0.01 -0.08,0 -0.08,-0.01 -0.08,-0.01 -0.08,0 -0.09,-0.01 -0.09,-0.01 -0.09,0 -0.09,0 -0.1,-0.01 -0.11,0 -0.1,0 -0.11,0 -0.11,-0.01 -0.12,0 -0.12,0 -0.13,0 c -0.57,0 -1.03,0 -1.03,-0.73 0,-0.52 0.41,-0.52 1.03,-0.52 h 13.49 c 5.86,0 10.36,4 10.36,7.45 0,2.49 -2.27,4.61 -5.97,4.99 4.22,0.76 7.75,3.42 7.75,6.41 0,2.65 -2.69,4.95 -7.22,4.95 l -0.56,-1.25 c 3.56,0 4.36,-2.35 4.36,-3.66 0,-2.83 -3.17,-6.03 -7.84,-6.03 h -5.71 l -0.25,-0.98 h 7.39 c 3.27,0 4.53,-2.16 4.53,-4.18 0,-3.45 -3.53,-6.45 -7.73,-6.45 h -5.63 c -1.07,0 -1.1,0.05 -1.1,0.36 0,0.03 0,0.2 0.13,0.72 l 2.41,9.55 0.25,0.98 2.13,8.5 c 0.26,1.08 0.31,1.19 1.76,1.19 h 5.3 l 0.56,1.25 h -12.69 c -0.65,0 -1.1,0 -1.1,-0.77 0,-0.48 0.42,-0.48 1.1,-0.48 0.03,0 0.71,0 1.33,-0.08 0.74,-0.06 0.8,-0.14 0.8,-0.48 0,-0.07 0,-0.24 -0.14,-0.77 z"
             id="path3391" /><path
             style="fill:#000000;stroke-width:0"
             inkscape:connector-curvature="0"
             d="m 635.85,421.95 0.21,1.28 3.39,13.56 c 0.44,1.74 0.55,1.89 2.69,1.89 h 4.78 c 4.14,0 6.78,-1.34 6.78,-4.78 0,-1.95 -1,-6.23 -2.94,-8.03 -2.5,-2.23 -5.48,-2.64 -7.69,-2.64 h -7.01 l -0.21,-1.28 h 8.47 c 7.08,0 14,5.17 14,10.75 0,3.84 -3.28,7.53 -9.81,7.53 h -16.14 c -0.95,0 -1.5,0 -1.5,-0.95 0,-0.6 0.45,-0.6 1.45,-0.6 0.65,0 1.55,-0.04 2.15,-0.09 0.79,-0.11 1.09,-0.25 1.09,-0.8 0,-0.2 -0.05,-0.36 -0.21,-0.95 l -6.67,-26.75 c -0.5,-1.95 -0.59,-2.34 -4.53,-2.34 -0.84,0 -1.39,0 -1.39,-0.96 0,-0.59 0.59,-0.59 0.74,-0.59 1.4,0 4.93,0.16 6.32,0.16 1.05,0 2.15,-0.07 3.19,-0.07 1.11,0 2.21,-0.09 3.25,-0.09 0.34,0 0.99,0 0.99,1 0,0.55 -0.44,0.55 -1.4,0.55 -1.84,0 -3.23,0 -3.23,0.89 0,0.29 0.1,0.54 0.14,0.84 z"
             id="path3393" /><path
             style="fill:#000000;stroke-width:0"
             inkscape:connector-curvature="0"
             d="m 659.43,401.48 -0.03,-0.11 -0.03,-0.1 -0.03,-0.1 -0.03,-0.09 -0.02,-0.09 -0.03,-0.09 -0.04,-0.08 -0.03,-0.07 -0.04,-0.07 -0.04,-0.07 -0.04,-0.06 -0.05,-0.06 -0.05,-0.05 -0.06,-0.05 -0.06,-0.05 -0.07,-0.04 -0.08,-0.04 -0.09,-0.03 -0.09,-0.04 -0.1,-0.03 -0.11,-0.02 -0.06,-0.02 -0.06,-0.01 -0.06,-0.01 -0.07,-0.01 -0.07,-0.01 -0.07,-0.01 -0.08,0 -0.07,-0.01 -0.08,-0.01 -0.09,0 -0.08,-0.01 -0.09,-0.01 -0.1,0 -0.09,0 -0.1,-0.01 -0.1,0 -0.11,0 -0.11,0 -0.11,-0.01 -0.12,0 -0.12,0 -0.12,0 c -0.58,0 -1.03,0 -1.03,-0.73 0,-0.52 0.4,-0.52 1.03,-0.52 h 13.48 c 5.86,0 10.36,4 10.36,7.45 0,2.49 -2.26,4.61 -5.97,4.99 4.22,0.76 7.75,3.42 7.75,6.41 0,2.65 -2.69,4.95 -7.22,4.95 l -0.56,-1.25 c 3.56,0 4.36,-2.35 4.36,-3.66 0,-2.83 -3.17,-6.03 -7.84,-6.03 H 665 l -0.25,-0.98 h 7.4 c 3.26,0 4.53,-2.16 4.53,-4.18 0,-3.45 -3.53,-6.45 -7.74,-6.45 h -5.62 c -1.08,0 -1.11,0.05 -1.11,0.36 0,0.03 0,0.2 0.14,0.72 l 2.4,9.55 0.25,0.98 2.13,8.5 c 0.27,1.08 0.31,1.19 1.77,1.19 h 5.29 l 0.56,1.25 h -12.68 c -0.66,0 -1.11,0 -1.11,-0.77 0,-0.48 0.42,-0.48 1.11,-0.48 0.03,0 0.7,0 1.33,-0.08 0.73,-0.06 0.79,-0.14 0.79,-0.48 0,-0.07 0,-0.24 -0.14,-0.77 z"
             id="path3395" /></g>      </g>
      <path
         transform="matrix(0.88665495,0,0,0.88665495,-60.018007,807.15343)"
         sodipodi:type="arc"
         style="fill:none;stroke:#000000;stroke-width:2;stroke-linecap:butt;stroke-miterlimit:4;stroke-dasharray:none"
         id="path3200-35"
         sodipodi:cx="135.36044"
         sodipodi:cy="208.88481"
         sodipodi:rx="66.670067"
         sodipodi:ry="66.670067"
         d="m 202.03051,208.88481 c 0,36.82086 -29.84921,66.67007 -66.67007,66.67007 -36.820858,0 -66.670064,-29.84921 -66.670064,-66.67007 0,-36.82086 29.849206,-66.67007 66.670064,-66.67007 36.82086,0 66.67007,29.84921 66.67007,66.67007 z" />
    </g>
    <g
       id="g3864"
       transform="translate(400,-550)">
      <g
         word-spacing="normal"
         letter-spacing="normal"
         font-size-adjust="none"
         font-stretch="normal"
         font-weight="normal"
         font-variant="normal"
         font-style="normal"
         stroke-miterlimit="10.433"
         xml:space="preserve"
         transform="matrix(0.45504252,0,0,-0.60194215,-198.24345,1242.383)"
         id="g3555"
         style="font-style:normal;font-variant:normal;font-weight:normal;font-stretch:normal;letter-spacing:normal;word-spacing:normal;text-anchor:start;fill:none;stroke:#000000;stroke-linecap:butt;stroke-linejoin:miter;stroke-miterlimit:10.43299961;stroke-opacity:1;stroke-dasharray:none;stroke-dashoffset:0"><path
           id="path3557"
           d="m 501.66,436.39 0.04,0.16 0.04,0.16 0.04,0.15 0.04,0.14 0.04,0.14 0.04,0.13 0.04,0.12 0.05,0.11 0.05,0.11 0.05,0.11 0.07,0.09 0.06,0.09 0.08,0.09 0.08,0.08 0.09,0.07 0.09,0.07 0.11,0.06 0.12,0.06 0.13,0.05 0.14,0.05 0.15,0.04 0.09,0.02 0.08,0.02 0.09,0.02 0.09,0.02 0.1,0.01 0.1,0.02 0.1,0.01 0.11,0.01 0.11,0.02 0.12,0.01 0.12,0.01 0.12,0 0.13,0.01 0.13,0.01 0.14,0.01 0.14,0 0.15,0 0.15,0.01 0.16,0 0.16,0 0.17,0 0.17,0 c 1.14,0 1.6,0 1.6,1 0,0.55 -0.5,0.55 -1.35,0.55 h -6.58 c -1.29,0 -1.34,0 -1.93,-0.95 l -18.19,-28.39 -3.89,28.18 c -0.16,1.16 -0.25,1.16 -1.55,1.16 h -6.83 c -0.93,0 -1.48,0 -1.48,-0.95 0,-0.6 0.44,-0.6 1.44,-0.6 0.65,0 1.54,-0.04 2.14,-0.09 0.79,-0.11 1.09,-0.25 1.09,-0.8 0,-0.2 -0.05,-0.36 -0.19,-0.95 l -6.33,-25.36 c -0.5,-2 -1.34,-3.59 -5.39,-3.73 -0.25,0 -0.89,-0.05 -0.89,-0.96 0,-0.43 0.3,-0.59 0.71,-0.59 1.59,0 3.32,0.16 4.97,0.16 1.7,0 3.5,-0.16 5.14,-0.16 0.25,0 0.89,0 0.89,1 0,0.55 -0.55,0.55 -0.89,0.55 -2.85,0.04 -3.39,1.04 -3.39,2.18 0,0.35 0.04,0.6 0.2,1.14 l 6.76,27.16 h 0.07 l 4.28,-30.89 c 0.09,-0.59 0.14,-1.14 0.75,-1.14 0.54,0 0.84,0.55 1.09,0.89 l 20.13,31.55 h 0.04 l -7.12,-28.55 c -0.5,-1.95 -0.6,-2.34 -4.53,-2.34 -0.85,0 -1.39,0 -1.39,-0.96 0,-0.59 0.59,-0.59 0.75,-0.59 1.39,0 4.78,0.16 6.17,0.16 2.05,0 4.19,-0.16 6.23,-0.16 0.3,0 0.94,0 0.94,1 0,0.55 -0.45,0.55 -1.39,0.55 -1.84,0 -3.23,0 -3.23,0.89 0,0.2 0,0.29 0.25,1.2 z"
           inkscape:connector-curvature="0"
           style="fill:#000000;stroke-width:0" /><path
           id="path3559"
           d="m 511.05,402.95 -0.11,-0.18 -0.12,-0.16 -0.11,-0.17 -0.11,-0.15 -0.12,-0.16 -0.11,-0.14 -0.11,-0.14 -0.12,-0.14 -0.12,-0.13 -0.11,-0.12 -0.12,-0.12 -0.12,-0.11 -0.12,-0.11 -0.12,-0.11 -0.13,-0.09 -0.13,-0.1 -0.13,-0.08 -0.13,-0.09 -0.14,-0.07 -0.14,-0.08 -0.14,-0.06 -0.14,-0.07 -0.15,-0.05 -0.16,-0.06 -0.15,-0.04 -0.16,-0.05 -0.17,-0.04 -0.17,-0.03 -0.17,-0.03 -0.18,-0.02 -0.19,-0.02 -0.19,-0.02 c -0.34,-0.03 -0.8,-0.03 -0.8,-0.73 0,-0.38 0.32,-0.52 0.49,-0.52 0.9,0 2.06,0.14 3,0.14 1.11,0 2.54,-0.14 3.59,-0.14 0.17,0 0.69,0 0.69,0.77 0,0.45 -0.45,0.48 -0.58,0.48 -0.28,0.05 -1.55,0.11 -1.55,1.05 0,0.42 0.36,1.01 0.53,1.33 l 2.79,4.31 h 9.96 l -0.17,1.26 h -8.95 l 7.31,11.4 1.64,-11.4 0.17,-1.26 0.85,-5.78 c -0.14,-0.35 -0.36,-0.91 -2.41,-0.91 -0.42,0 -0.9,0 -0.9,-0.76 0,-0.14 0.09,-0.49 0.54,-0.49 1.02,0 3.49,0.14 4.5,0.14 0.63,0 1.42,-0.03 2.07,-0.03 0.62,-0.05 1.35,-0.11 1.98,-0.11 0.45,0 0.69,0.28 0.69,0.74 0,0.51 -0.41,0.51 -0.97,0.51 -2.02,0 -2.1,0.28 -2.2,1.13 l -3.07,21.5 c -0.11,0.72 -0.17,0.97 -0.83,0.97 -0.67,0 -0.87,-0.32 -1.18,-0.8 z"
           inkscape:connector-curvature="0"
           style="fill:#000000;stroke-width:0" /><path
           id="path3561"
           d="m 582.42,436.39 0.04,0.16 0.04,0.16 0.04,0.15 0.04,0.14 0.04,0.14 0.04,0.13 0.04,0.12 0.05,0.11 0.05,0.11 0.06,0.11 0.06,0.09 0.06,0.09 0.08,0.09 0.08,0.08 0.09,0.07 0.1,0.07 0.1,0.06 0.12,0.06 0.13,0.05 0.14,0.05 0.16,0.04 0.08,0.02 0.08,0.02 0.09,0.02 0.09,0.02 0.1,0.01 0.1,0.02 0.1,0.01 0.11,0.01 0.11,0.02 0.12,0.01 0.12,0.01 0.12,0 0.13,0.01 0.13,0.01 0.14,0.01 0.15,0 0.14,0 0.15,0.01 0.16,0 0.16,0 0.17,0 0.17,0 c 1.14,0 1.6,0 1.6,1 0,0.55 -0.5,0.55 -1.35,0.55 h -6.57 c -1.3,0 -1.35,0 -1.94,-0.95 l -18.19,-28.39 -3.89,28.18 c -0.16,1.16 -0.25,1.16 -1.55,1.16 h -6.83 c -0.93,0 -1.48,0 -1.48,-0.95 0,-0.6 0.44,-0.6 1.44,-0.6 0.65,0 1.54,-0.04 2.14,-0.09 0.8,-0.11 1.09,-0.25 1.09,-0.8 0,-0.2 -0.05,-0.36 -0.19,-0.95 l -6.32,-25.36 c -0.5,-2 -1.35,-3.59 -5.39,-3.73 -0.25,0 -0.89,-0.05 -0.89,-0.96 0,-0.43 0.29,-0.59 0.7,-0.59 1.59,0 3.33,0.16 4.97,0.16 1.7,0 3.5,-0.16 5.14,-0.16 0.25,0 0.89,0 0.89,1 0,0.55 -0.55,0.55 -0.89,0.55 -2.85,0.04 -3.39,1.04 -3.39,2.18 0,0.35 0.04,0.6 0.2,1.14 l 6.77,27.16 h 0.06 l 4.28,-30.89 c 0.09,-0.59 0.14,-1.14 0.75,-1.14 0.55,0 0.84,0.55 1.09,0.89 l 20.13,31.55 h 0.04 L 572,410.09 c -0.5,-1.95 -0.59,-2.34 -4.53,-2.34 -0.85,0 -1.39,0 -1.39,-0.96 0,-0.59 0.59,-0.59 0.75,-0.59 1.39,0 4.78,0.16 6.17,0.16 2.05,0 4.19,-0.16 6.23,-0.16 0.3,0 0.94,0 0.94,1 0,0.55 -0.45,0.55 -1.39,0.55 -1.84,0 -3.23,0 -3.23,0.89 0,0.2 0,0.29 0.25,1.2 z"
           inkscape:connector-curvature="0"
           style="fill:#000000;stroke-width:0" /><path
           id="path3563"
           d="m 591.81,402.95 -0.11,-0.18 -0.12,-0.16 -0.11,-0.17 -0.11,-0.15 -0.12,-0.16 -0.11,-0.14 -0.11,-0.14 -0.12,-0.14 -0.11,-0.13 -0.12,-0.12 -0.12,-0.12 -0.12,-0.11 -0.12,-0.11 -0.12,-0.11 -0.13,-0.09 -0.13,-0.1 -0.13,-0.08 -0.13,-0.09 -0.14,-0.07 -0.13,-0.08 -0.15,-0.06 -0.14,-0.07 -0.15,-0.05 -0.15,-0.06 -0.16,-0.04 -0.16,-0.05 -0.17,-0.04 -0.17,-0.03 -0.17,-0.03 -0.18,-0.02 -0.19,-0.02 -0.19,-0.02 c -0.34,-0.03 -0.8,-0.03 -0.8,-0.73 0,-0.38 0.32,-0.52 0.49,-0.52 0.91,0 2.06,0.14 3,0.14 1.11,0 2.55,-0.14 3.59,-0.14 0.18,0 0.69,0 0.69,0.77 0,0.45 -0.45,0.48 -0.58,0.48 -0.28,0.05 -1.54,0.11 -1.54,1.05 0,0.42 0.35,1.01 0.53,1.33 l 2.78,4.31 h 9.97 l -0.17,1.26 h -8.96 l 7.31,11.4 1.65,-11.4 0.17,-1.26 0.84,-5.78 c -0.14,-0.35 -0.36,-0.91 -2.41,-0.91 -0.42,0 -0.9,0 -0.9,-0.76 0,-0.14 0.09,-0.49 0.54,-0.49 1.02,0 3.49,0.14 4.5,0.14 0.63,0 1.43,-0.03 2.07,-0.03 0.62,-0.05 1.36,-0.11 1.98,-0.11 0.45,0 0.69,0.28 0.69,0.74 0,0.51 -0.41,0.51 -0.97,0.51 -2.01,0 -2.09,0.28 -2.2,1.13 l -3.07,21.5 c -0.1,0.72 -0.17,0.97 -0.82,0.97 -0.68,0 -0.88,-0.32 -1.19,-0.8 z"
           inkscape:connector-curvature="0"
           style="fill:#000000;stroke-width:0" /><path
           id="path3565"
           d="m 632.25,421.95 0.21,1.28 3.39,13.56 c 0.43,1.74 0.55,1.89 2.68,1.89 h 4.79 c 4.14,0 6.78,-1.34 6.78,-4.78 0,-1.95 -1,-6.23 -2.94,-8.03 -2.5,-2.23 -5.48,-2.64 -7.69,-2.64 h -7.01 l -0.21,-1.28 h 8.47 c 7.08,0 14,5.17 14,10.75 0,3.84 -3.28,7.53 -9.81,7.53 h -16.14 c -0.95,0 -1.5,0 -1.5,-0.95 0,-0.6 0.45,-0.6 1.45,-0.6 0.64,0 1.55,-0.04 2.14,-0.09 0.8,-0.11 1.1,-0.25 1.1,-0.8 0,-0.2 -0.05,-0.36 -0.21,-0.95 l -6.67,-26.75 c -0.5,-1.95 -0.59,-2.34 -4.53,-2.34 -0.84,0 -1.39,0 -1.39,-0.96 0,-0.59 0.59,-0.59 0.74,-0.59 1.4,0 4.93,0.16 6.32,0.16 1.05,0 2.14,-0.07 3.19,-0.07 1.11,0 2.2,-0.09 3.25,-0.09 0.34,0 0.99,0 0.99,1 0,0.55 -0.44,0.55 -1.4,0.55 -1.84,0 -3.23,0 -3.23,0.89 0,0.29 0.09,0.54 0.14,0.84 z"
           inkscape:connector-curvature="0"
           style="fill:#000000;stroke-width:0" /><path
           id="path3567"
           d="m 656.37,402.95 -0.11,-0.18 -0.12,-0.16 -0.11,-0.17 -0.11,-0.15 -0.12,-0.16 -0.11,-0.14 -0.11,-0.14 -0.12,-0.14 -0.12,-0.13 -0.11,-0.12 -0.12,-0.12 -0.12,-0.11 -0.12,-0.11 -0.12,-0.11 -0.13,-0.09 -0.13,-0.1 -0.13,-0.08 -0.13,-0.09 -0.14,-0.07 -0.14,-0.08 -0.14,-0.06 -0.14,-0.07 -0.15,-0.05 -0.15,-0.06 -0.16,-0.04 -0.16,-0.05 -0.17,-0.04 -0.17,-0.03 -0.17,-0.03 -0.18,-0.02 -0.19,-0.02 -0.19,-0.02 c -0.34,-0.03 -0.8,-0.03 -0.8,-0.73 0,-0.38 0.32,-0.52 0.49,-0.52 0.9,0 2.06,0.14 3,0.14 1.11,0 2.55,-0.14 3.59,-0.14 0.17,0 0.69,0 0.69,0.77 0,0.45 -0.45,0.48 -0.58,0.48 -0.28,0.05 -1.55,0.11 -1.55,1.05 0,0.42 0.36,1.01 0.53,1.33 l 2.79,4.31 h 9.96 l -0.17,1.26 h -8.95 l 7.31,11.4 1.64,-11.4 0.17,-1.26 0.85,-5.78 c -0.14,-0.35 -0.36,-0.91 -2.41,-0.91 -0.42,0 -0.9,0 -0.9,-0.76 0,-0.14 0.09,-0.49 0.54,-0.49 1.02,0 3.49,0.14 4.5,0.14 0.63,0 1.42,-0.03 2.07,-0.03 0.62,-0.05 1.35,-0.11 1.98,-0.11 0.45,0 0.69,0.28 0.69,0.74 0,0.51 -0.41,0.51 -0.97,0.51 -2.02,0 -2.1,0.28 -2.2,1.13 l -3.07,21.5 c -0.11,0.72 -0.17,0.97 -0.83,0.97 -0.67,0 -0.87,-0.32 -1.18,-0.8 z"
           inkscape:connector-curvature="0"
           style="fill:#000000;stroke-width:0" /></g>      <path
         transform="matrix(0.88665495,0,0,0.88665495,-60.018007,807.15343)"
         sodipodi:type="arc"
         style="fill:none;stroke:#000000;stroke-width:2;stroke-linecap:butt;stroke-miterlimit:4;stroke-dasharray:none"
         id="path3200-1"
         sodipodi:cx="135.36044"
         sodipodi:cy="208.88481"
         sodipodi:rx="66.670067"
         sodipodi:ry="66.670067"
         d="m 202.03051,208.88481 c 0,36.82086 -29.84921,66.67007 -66.67007,66.67007 -36.820858,0 -66.670064,-29.84921 -66.670064,-66.67007 0,-36.82086 29.849206,-66.67007 66.670064,-66.67007 36.82086,0 66.67007,29.84921 66.67007,66.67007 z" />
    </g>
    <g
       id="g3921"
       transform="translate(200,-550)">
      <g
         id="g3463"
         transform="matrix(0.42108266,0,0,0.56712127,-116.49837,795.14008)">
        <g
           word-spacing="normal"
           letter-spacing="normal"
           font-size-adjust="none"
           font-stretch="normal"
           font-weight="normal"
           font-variant="normal"
           font-style="normal"
           stroke-miterlimit="10.433"
           xml:space="preserve"
           transform="matrix(1.0629921,0,0,-1.0629921,-186.02362,789.27165)"
           id="g3465"
           style="font-style:normal;font-variant:normal;font-weight:normal;font-stretch:normal;letter-spacing:normal;word-spacing:normal;text-anchor:start;fill:none;stroke:#000000;stroke-linecap:butt;stroke-linejoin:miter;stroke-miterlimit:10.43299961;stroke-opacity:1;stroke-dasharray:none;stroke-dashoffset:0"><path
             id="path3467"
             d="m 501.66,436.39 0.04,0.16 0.04,0.16 0.04,0.15 0.04,0.14 0.04,0.14 0.04,0.13 0.04,0.12 0.05,0.11 0.05,0.11 0.05,0.11 0.07,0.09 0.06,0.09 0.08,0.09 0.08,0.08 0.09,0.07 0.09,0.07 0.11,0.06 0.12,0.06 0.13,0.05 0.14,0.05 0.15,0.04 0.09,0.02 0.08,0.02 0.09,0.02 0.09,0.02 0.1,0.01 0.1,0.02 0.1,0.01 0.11,0.01 0.11,0.02 0.12,0.01 0.12,0.01 0.12,0 0.13,0.01 0.13,0.01 0.14,0.01 0.14,0 0.15,0 0.15,0.01 0.16,0 0.16,0 0.17,0 0.17,0 c 1.14,0 1.6,0 1.6,1 0,0.55 -0.5,0.55 -1.35,0.55 h -6.58 c -1.29,0 -1.34,0 -1.93,-0.95 l -18.19,-28.39 -3.89,28.18 c -0.16,1.16 -0.25,1.16 -1.55,1.16 h -6.83 c -0.93,0 -1.48,0 -1.48,-0.95 0,-0.6 0.44,-0.6 1.44,-0.6 0.65,0 1.54,-0.04 2.14,-0.09 0.79,-0.11 1.09,-0.25 1.09,-0.8 0,-0.2 -0.05,-0.36 -0.19,-0.95 l -6.33,-25.36 c -0.5,-2 -1.34,-3.59 -5.39,-3.73 -0.25,0 -0.89,-0.05 -0.89,-0.96 0,-0.43 0.3,-0.59 0.71,-0.59 1.59,0 3.32,0.16 4.97,0.16 1.7,0 3.5,-0.16 5.14,-0.16 0.25,0 0.89,0 0.89,1 0,0.55 -0.55,0.55 -0.89,0.55 -2.85,0.04 -3.39,1.04 -3.39,2.18 0,0.35 0.04,0.6 0.2,1.14 l 6.76,27.16 h 0.07 l 4.28,-30.89 c 0.09,-0.59 0.14,-1.14 0.75,-1.14 0.54,0 0.84,0.55 1.09,0.89 l 20.13,31.55 h 0.04 l -7.12,-28.55 c -0.5,-1.95 -0.6,-2.34 -4.53,-2.34 -0.85,0 -1.39,0 -1.39,-0.96 0,-0.59 0.59,-0.59 0.75,-0.59 1.39,0 4.78,0.16 6.17,0.16 2.05,0 4.19,-0.16 6.23,-0.16 0.3,0 0.94,0 0.94,1 0,0.55 -0.45,0.55 -1.39,0.55 -1.84,0 -3.23,0 -3.23,0.89 0,0.2 0,0.29 0.25,1.2 z"
             inkscape:connector-curvature="0"
             style="fill:#000000;stroke-width:0" /><path
             id="path3469"
             d="m 510.5,401.48 -0.02,-0.11 -0.03,-0.1 -0.03,-0.1 -0.03,-0.09 -0.03,-0.09 -0.03,-0.09 -0.03,-0.08 -0.03,-0.07 -0.04,-0.07 -0.04,-0.07 -0.04,-0.06 -0.05,-0.06 -0.05,-0.05 -0.06,-0.05 -0.06,-0.05 -0.07,-0.04 -0.08,-0.04 -0.09,-0.03 -0.09,-0.04 -0.1,-0.03 -0.11,-0.02 -0.06,-0.02 -0.06,-0.01 -0.07,-0.01 -0.06,-0.01 -0.07,-0.01 -0.07,-0.01 -0.08,0 -0.08,-0.01 -0.08,-0.01 -0.08,0 -0.09,-0.01 -0.08,-0.01 -0.1,0 -0.09,0 -0.1,-0.01 -0.1,0 -0.11,0 -0.11,0 -0.11,-0.01 -0.12,0 -0.12,0 -0.12,0 c -0.58,0 -1.04,0 -1.04,-0.73 0,-0.52 0.41,-0.52 1.04,-0.52 h 13.48 c 5.86,0 10.36,4 10.36,7.45 0,2.49 -2.27,4.61 -5.97,4.99 4.22,0.76 7.75,3.42 7.75,6.41 0,2.65 -2.69,4.95 -7.22,4.95 l -0.56,-1.25 c 3.56,0 4.36,-2.35 4.36,-3.66 0,-2.83 -3.17,-6.03 -7.85,-6.03 h -5.7 l -0.25,-0.98 h 7.39 c 3.27,0 4.53,-2.16 4.53,-4.18 0,-3.45 -3.53,-6.45 -7.73,-6.45 h -5.62 c -1.08,0 -1.12,0.05 -1.12,0.36 0,0.03 0,0.2 0.15,0.72 l 2.4,9.55 0.25,0.98 2.13,8.5 c 0.26,1.08 0.31,1.19 1.76,1.19 h 5.3 l 0.56,1.25 h -12.68 c -0.66,0 -1.12,0 -1.12,-0.77 0,-0.48 0.43,-0.48 1.12,-0.48 0.03,0 0.7,0 1.32,-0.08 0.74,-0.06 0.8,-0.14 0.8,-0.48 0,-0.07 0,-0.24 -0.14,-0.77 z"
             inkscape:connector-curvature="0"
             style="fill:#000000;stroke-width:0" /><path
             id="path3471"
             d="m 584.34,436.39 0.04,0.16 0.04,0.16 0.04,0.15 0.04,0.14 0.04,0.14 0.04,0.13 0.04,0.12 0.05,0.11 0.05,0.11 0.05,0.11 0.07,0.09 0.06,0.09 0.08,0.09 0.08,0.08 0.09,0.07 0.09,0.07 0.11,0.06 0.12,0.06 0.13,0.05 0.14,0.05 0.15,0.04 0.09,0.02 0.08,0.02 0.09,0.02 0.09,0.02 0.1,0.01 0.1,0.02 0.1,0.01 0.11,0.01 0.11,0.02 0.12,0.01 0.12,0.01 0.12,0 0.13,0.01 0.13,0.01 0.14,0.01 0.14,0 0.15,0 0.15,0.01 0.16,0 0.16,0 0.17,0 0.17,0 c 1.14,0 1.6,0 1.6,1 0,0.55 -0.5,0.55 -1.35,0.55 h -6.58 c -1.29,0 -1.34,0 -1.94,-0.95 l -18.18,-28.39 -3.89,28.18 c -0.16,1.16 -0.25,1.16 -1.55,1.16 h -6.83 c -0.93,0 -1.48,0 -1.48,-0.95 0,-0.6 0.43,-0.6 1.43,-0.6 0.66,0 1.55,-0.04 2.15,-0.09 0.79,-0.11 1.09,-0.25 1.09,-0.8 0,-0.2 -0.05,-0.36 -0.19,-0.95 l -6.33,-25.36 c -0.5,-2 -1.34,-3.59 -5.39,-3.73 -0.25,0 -0.89,-0.05 -0.89,-0.96 0,-0.43 0.3,-0.59 0.71,-0.59 1.59,0 3.32,0.16 4.97,0.16 1.7,0 3.5,-0.16 5.13,-0.16 0.25,0 0.9,0 0.9,1 0,0.55 -0.55,0.55 -0.9,0.55 -2.84,0.04 -3.38,1.04 -3.38,2.18 0,0.35 0.04,0.6 0.2,1.14 l 6.76,27.16 h 0.07 l 4.28,-30.89 c 0.09,-0.59 0.14,-1.14 0.75,-1.14 0.54,0 0.84,0.55 1.09,0.89 L 581,438.64 h 0.04 l -7.12,-28.55 c -0.5,-1.95 -0.6,-2.34 -4.53,-2.34 -0.85,0 -1.39,0 -1.39,-0.96 0,-0.59 0.59,-0.59 0.75,-0.59 1.39,0 4.78,0.16 6.17,0.16 2.05,0 4.18,-0.16 6.23,-0.16 0.3,0 0.94,0 0.94,1 0,0.55 -0.45,0.55 -1.39,0.55 -1.85,0 -3.23,0 -3.23,0.89 0,0.2 0,0.29 0.25,1.2 z"
             inkscape:connector-curvature="0"
             style="fill:#000000;stroke-width:0" /><path
             id="path3473"
             d="m 593.18,401.48 -0.02,-0.11 -0.03,-0.1 -0.03,-0.1 -0.03,-0.09 -0.03,-0.09 -0.03,-0.09 -0.03,-0.08 -0.03,-0.07 -0.04,-0.07 -0.04,-0.07 -0.04,-0.06 -0.05,-0.06 -0.05,-0.05 -0.06,-0.05 -0.06,-0.05 -0.07,-0.04 -0.08,-0.04 -0.09,-0.03 -0.09,-0.04 -0.1,-0.03 -0.11,-0.02 -0.06,-0.02 -0.06,-0.01 -0.07,-0.01 -0.06,-0.01 -0.07,-0.01 -0.07,-0.01 -0.08,0 -0.08,-0.01 -0.08,-0.01 -0.08,0 -0.09,-0.01 -0.09,-0.01 -0.09,0 -0.09,0 -0.1,-0.01 -0.11,0 -0.1,0 -0.11,0 -0.11,-0.01 -0.12,0 -0.12,0 -0.13,0 c -0.57,0 -1.03,0 -1.03,-0.73 0,-0.52 0.41,-0.52 1.03,-0.52 h 13.49 c 5.86,0 10.36,4 10.36,7.45 0,2.49 -2.27,4.61 -5.97,4.99 4.22,0.76 7.75,3.42 7.75,6.41 0,2.65 -2.69,4.95 -7.22,4.95 l -0.56,-1.25 c 3.56,0 4.36,-2.35 4.36,-3.66 0,-2.83 -3.17,-6.03 -7.84,-6.03 h -5.71 l -0.25,-0.98 h 7.39 c 3.27,0 4.53,-2.16 4.53,-4.18 0,-3.45 -3.53,-6.45 -7.73,-6.45 h -5.63 c -1.07,0 -1.1,0.05 -1.1,0.36 0,0.03 0,0.2 0.13,0.72 l 2.41,9.55 0.25,0.98 2.13,8.5 c 0.26,1.08 0.31,1.19 1.76,1.19 h 5.3 l 0.56,1.25 h -12.69 c -0.65,0 -1.1,0 -1.1,-0.77 0,-0.48 0.42,-0.48 1.1,-0.48 0.03,0 0.71,0 1.33,-0.08 0.74,-0.06 0.8,-0.14 0.8,-0.48 0,-0.07 0,-0.24 -0.14,-0.77 z"
             inkscape:connector-curvature="0"
             style="fill:#000000;stroke-width:0" /><path
             id="path3475"
             d="m 635.85,421.95 0.21,1.28 3.39,13.56 c 0.44,1.74 0.55,1.89 2.69,1.89 h 4.78 c 4.14,0 6.78,-1.34 6.78,-4.78 0,-1.95 -1,-6.23 -2.94,-8.03 -2.5,-2.23 -5.48,-2.64 -7.69,-2.64 h -7.01 l -0.21,-1.28 h 8.47 c 7.08,0 14,5.17 14,10.75 0,3.84 -3.28,7.53 -9.81,7.53 h -16.14 c -0.95,0 -1.5,0 -1.5,-0.95 0,-0.6 0.45,-0.6 1.45,-0.6 0.65,0 1.55,-0.04 2.15,-0.09 0.79,-0.11 1.09,-0.25 1.09,-0.8 0,-0.2 -0.05,-0.36 -0.21,-0.95 l -6.67,-26.75 c -0.5,-1.95 -0.59,-2.34 -4.53,-2.34 -0.84,0 -1.39,0 -1.39,-0.96 0,-0.59 0.59,-0.59 0.74,-0.59 1.4,0 4.93,0.16 6.32,0.16 1.05,0 2.15,-0.07 3.19,-0.07 1.11,0 2.21,-0.09 3.25,-0.09 0.34,0 0.99,0 0.99,1 0,0.55 -0.44,0.55 -1.4,0.55 -1.84,0 -3.23,0 -3.23,0.89 0,0.29 0.1,0.54 0.14,0.84 z"
             inkscape:connector-curvature="0"
             style="fill:#000000;stroke-width:0" /><path
             id="path3477"
             d="m 659.97,402.95 -0.11,-0.18 -0.11,-0.16 -0.12,-0.17 -0.11,-0.15 -0.11,-0.16 -0.12,-0.14 -0.11,-0.14 -0.12,-0.14 -0.11,-0.13 -0.12,-0.12 -0.12,-0.12 -0.12,-0.11 -0.12,-0.11 -0.12,-0.11 -0.13,-0.09 -0.13,-0.1 -0.13,-0.08 -0.13,-0.09 -0.13,-0.07 -0.14,-0.08 -0.15,-0.06 -0.14,-0.07 -0.15,-0.05 -0.15,-0.06 -0.16,-0.04 -0.16,-0.05 -0.17,-0.04 -0.17,-0.03 -0.17,-0.03 -0.18,-0.02 -0.19,-0.02 -0.19,-0.02 c -0.34,-0.03 -0.8,-0.03 -0.8,-0.73 0,-0.38 0.32,-0.52 0.49,-0.52 0.91,0 2.06,0.14 3,0.14 1.11,0 2.55,-0.14 3.59,-0.14 0.17,0 0.69,0 0.69,0.77 0,0.45 -0.45,0.48 -0.58,0.48 -0.28,0.05 -1.54,0.11 -1.54,1.05 0,0.42 0.35,1.01 0.53,1.33 l 2.78,4.31 h 9.97 l -0.18,1.26 h -8.95 l 7.32,11.4 1.63,-11.4 0.18,-1.26 0.84,-5.78 c -0.14,-0.35 -0.36,-0.91 -2.4,-0.91 -0.43,0 -0.91,0 -0.91,-0.76 0,-0.14 0.09,-0.49 0.54,-0.49 1.02,0 3.49,0.14 4.5,0.14 0.63,0 1.43,-0.03 2.07,-0.03 0.62,-0.05 1.36,-0.11 1.98,-0.11 0.45,0 0.69,0.28 0.69,0.74 0,0.51 -0.41,0.51 -0.97,0.51 -2.02,0 -2.09,0.28 -2.2,1.13 l -3.07,21.5 c -0.1,0.72 -0.17,0.97 -0.82,0.97 -0.68,0 -0.88,-0.32 -1.19,-0.8 z"
             inkscape:connector-curvature="0"
             style="fill:#000000;stroke-width:0" /></g>      </g>
      <path
         transform="matrix(0.88665495,0,0,0.88665495,-60.018007,807.15343)"
         sodipodi:type="arc"
         style="fill:none;stroke:#000000;stroke-width:2;stroke-linecap:butt;stroke-miterlimit:4;stroke-dasharray:none"
         id="path3200-35-3"
         sodipodi:cx="135.36044"
         sodipodi:cy="208.88481"
         sodipodi:rx="66.670067"
         sodipodi:ry="66.670067"
         d="m 202.03051,208.88481 c 0,36.82086 -29.84921,66.67007 -66.67007,66.67007 -36.820858,0 -66.670064,-29.84921 -66.670064,-66.67007 0,-36.82086 29.849206,-66.67007 66.670064,-66.67007 36.82086,0 66.67007,29.84921 66.67007,66.67007 z" />
    </g>
    <g
       id="g3932"
       transform="translate(-1.9756584e-7,-550)">
      <g
         word-spacing="normal"
         letter-spacing="normal"
         font-size-adjust="none"
         font-stretch="normal"
         font-weight="normal"
         font-variant="normal"
         font-style="normal"
         stroke-miterlimit="10.433"
         xml:space="preserve"
         transform="matrix(0.45142485,0,0,-0.6019454,-196.58685,1242.3855)"
         id="content"
         style="font-style:normal;font-variant:normal;font-weight:normal;font-stretch:normal;letter-spacing:normal;word-spacing:normal;text-anchor:start;fill:none;stroke:#000000;stroke-linecap:butt;stroke-linejoin:miter;stroke-miterlimit:10.43299961;stroke-opacity:1;stroke-dasharray:none;stroke-dashoffset:0"><path
           id="path3211"
           d="m 501.66,436.39 0.04,0.16 0.04,0.16 0.04,0.15 0.04,0.14 0.04,0.14 0.04,0.13 0.04,0.12 0.05,0.11 0.05,0.11 0.05,0.11 0.07,0.09 0.06,0.09 0.08,0.09 0.08,0.08 0.09,0.07 0.09,0.07 0.11,0.06 0.12,0.06 0.13,0.05 0.14,0.05 0.15,0.04 0.09,0.02 0.08,0.02 0.09,0.02 0.09,0.02 0.1,0.01 0.1,0.02 0.1,0.01 0.11,0.01 0.11,0.02 0.12,0.01 0.12,0.01 0.12,0 0.13,0.01 0.13,0.01 0.14,0.01 0.14,0 0.15,0 0.15,0.01 0.16,0 0.16,0 0.17,0 0.17,0 c 1.14,0 1.6,0 1.6,1 0,0.55 -0.5,0.55 -1.35,0.55 h -6.58 c -1.29,0 -1.34,0 -1.93,-0.95 l -18.19,-28.39 -3.89,28.18 c -0.16,1.16 -0.25,1.16 -1.55,1.16 h -6.83 c -0.93,0 -1.48,0 -1.48,-0.95 0,-0.6 0.44,-0.6 1.44,-0.6 0.65,0 1.54,-0.04 2.14,-0.09 0.79,-0.11 1.09,-0.25 1.09,-0.8 0,-0.2 -0.05,-0.36 -0.19,-0.95 l -6.33,-25.36 c -0.5,-2 -1.34,-3.59 -5.39,-3.73 -0.25,0 -0.89,-0.05 -0.89,-0.96 0,-0.43 0.3,-0.59 0.71,-0.59 1.59,0 3.32,0.16 4.97,0.16 1.7,0 3.5,-0.16 5.14,-0.16 0.25,0 0.89,0 0.89,1 0,0.55 -0.55,0.55 -0.89,0.55 -2.85,0.04 -3.39,1.04 -3.39,2.18 0,0.35 0.04,0.6 0.2,1.14 l 6.76,27.16 h 0.07 l 4.28,-30.89 c 0.09,-0.59 0.14,-1.14 0.75,-1.14 0.54,0 0.84,0.55 1.09,0.89 l 20.13,31.55 h 0.04 l -7.12,-28.55 c -0.5,-1.95 -0.6,-2.34 -4.53,-2.34 -0.85,0 -1.39,0 -1.39,-0.96 0,-0.59 0.59,-0.59 0.75,-0.59 1.39,0 4.78,0.16 6.17,0.16 2.05,0 4.19,-0.16 6.23,-0.16 0.3,0 0.94,0 0.94,1 0,0.55 -0.45,0.55 -1.39,0.55 -1.84,0 -3.23,0 -3.23,0.89 0,0.2 0,0.29 0.25,1.2 z"
           inkscape:connector-curvature="0"
           style="fill:#000000;stroke-width:0" /><path
           id="path3213"
           d="m 511.05,402.95 -0.11,-0.18 -0.12,-0.16 -0.11,-0.17 -0.11,-0.15 -0.12,-0.16 -0.11,-0.14 -0.11,-0.14 -0.12,-0.14 -0.12,-0.13 -0.11,-0.12 -0.12,-0.12 -0.12,-0.11 -0.12,-0.11 -0.12,-0.11 -0.13,-0.09 -0.13,-0.1 -0.13,-0.08 -0.13,-0.09 -0.14,-0.07 -0.14,-0.08 -0.14,-0.06 -0.14,-0.07 -0.15,-0.05 -0.16,-0.06 -0.15,-0.04 -0.16,-0.05 -0.17,-0.04 -0.17,-0.03 -0.17,-0.03 -0.18,-0.02 -0.19,-0.02 -0.19,-0.02 c -0.34,-0.03 -0.8,-0.03 -0.8,-0.73 0,-0.38 0.32,-0.52 0.49,-0.52 0.9,0 2.06,0.14 3,0.14 1.11,0 2.54,-0.14 3.59,-0.14 0.17,0 0.69,0 0.69,0.77 0,0.45 -0.45,0.48 -0.58,0.48 -0.28,0.05 -1.55,0.11 -1.55,1.05 0,0.42 0.36,1.01 0.53,1.33 l 2.79,4.31 h 9.96 l -0.17,1.26 h -8.95 l 7.31,11.4 1.64,-11.4 0.17,-1.26 0.85,-5.78 c -0.14,-0.35 -0.36,-0.91 -2.41,-0.91 -0.42,0 -0.9,0 -0.9,-0.76 0,-0.14 0.09,-0.49 0.54,-0.49 1.02,0 3.49,0.14 4.5,0.14 0.63,0 1.42,-0.03 2.07,-0.03 0.62,-0.05 1.35,-0.11 1.98,-0.11 0.45,0 0.69,0.28 0.69,0.74 0,0.51 -0.41,0.51 -0.97,0.51 -2.02,0 -2.1,0.28 -2.2,1.13 l -3.07,21.5 c -0.11,0.72 -0.17,0.97 -0.83,0.97 -0.67,0 -0.87,-0.32 -1.18,-0.8 z"
           inkscape:connector-curvature="0"
           style="fill:#000000;stroke-width:0" /><path
           id="path3215"
           d="m 582.42,436.39 0.04,0.16 0.04,0.16 0.04,0.15 0.04,0.14 0.04,0.14 0.04,0.13 0.04,0.12 0.05,0.11 0.05,0.11 0.06,0.11 0.06,0.09 0.06,0.09 0.08,0.09 0.08,0.08 0.09,0.07 0.1,0.07 0.1,0.06 0.12,0.06 0.13,0.05 0.14,0.05 0.16,0.04 0.08,0.02 0.08,0.02 0.09,0.02 0.09,0.02 0.1,0.01 0.1,0.02 0.1,0.01 0.11,0.01 0.11,0.02 0.12,0.01 0.12,0.01 0.12,0 0.13,0.01 0.13,0.01 0.14,0.01 0.15,0 0.14,0 0.15,0.01 0.16,0 0.16,0 0.17,0 0.17,0 c 1.14,0 1.6,0 1.6,1 0,0.55 -0.5,0.55 -1.35,0.55 h -6.57 c -1.3,0 -1.35,0 -1.94,-0.95 l -18.19,-28.39 -3.89,28.18 c -0.16,1.16 -0.25,1.16 -1.55,1.16 h -6.83 c -0.93,0 -1.48,0 -1.48,-0.95 0,-0.6 0.44,-0.6 1.44,-0.6 0.65,0 1.54,-0.04 2.14,-0.09 0.8,-0.11 1.09,-0.25 1.09,-0.8 0,-0.2 -0.05,-0.36 -0.19,-0.95 l -6.32,-25.36 c -0.5,-2 -1.35,-3.59 -5.39,-3.73 -0.25,0 -0.89,-0.05 -0.89,-0.96 0,-0.43 0.29,-0.59 0.7,-0.59 1.59,0 3.33,0.16 4.97,0.16 1.7,0 3.5,-0.16 5.14,-0.16 0.25,0 0.89,0 0.89,1 0,0.55 -0.55,0.55 -0.89,0.55 -2.85,0.04 -3.39,1.04 -3.39,2.18 0,0.35 0.04,0.6 0.2,1.14 l 6.77,27.16 h 0.06 l 4.28,-30.89 c 0.09,-0.59 0.14,-1.14 0.75,-1.14 0.55,0 0.84,0.55 1.09,0.89 l 20.13,31.55 h 0.04 L 572,410.09 c -0.5,-1.95 -0.59,-2.34 -4.53,-2.34 -0.85,0 -1.39,0 -1.39,-0.96 0,-0.59 0.59,-0.59 0.75,-0.59 1.39,0 4.78,0.16 6.17,0.16 2.05,0 4.19,-0.16 6.23,-0.16 0.3,0 0.94,0 0.94,1 0,0.55 -0.45,0.55 -1.39,0.55 -1.84,0 -3.23,0 -3.23,0.89 0,0.2 0,0.29 0.25,1.2 z"
           inkscape:connector-curvature="0"
           style="fill:#000000;stroke-width:0" /><path
           id="path3217"
           d="m 591.27,401.48 -0.03,-0.11 -0.03,-0.1 -0.03,-0.1 -0.03,-0.09 -0.02,-0.09 -0.03,-0.09 -0.04,-0.08 -0.03,-0.07 -0.04,-0.07 -0.04,-0.07 -0.04,-0.06 -0.05,-0.06 -0.05,-0.05 -0.06,-0.05 -0.06,-0.05 -0.07,-0.04 -0.08,-0.04 -0.09,-0.03 -0.09,-0.04 -0.1,-0.03 -0.11,-0.02 -0.06,-0.02 -0.06,-0.01 -0.06,-0.01 -0.07,-0.01 -0.07,-0.01 -0.07,-0.01 -0.08,0 -0.07,-0.01 -0.08,-0.01 -0.09,0 -0.08,-0.01 -0.09,-0.01 -0.1,0 -0.09,0 -0.1,-0.01 -0.1,0 -0.11,0 -0.11,0 -0.11,-0.01 -0.12,0 -0.12,0 -0.12,0 c -0.58,0 -1.03,0 -1.03,-0.73 0,-0.52 0.4,-0.52 1.03,-0.52 h 13.48 c 5.86,0 10.36,4 10.36,7.45 0,2.49 -2.26,4.61 -5.97,4.99 4.22,0.76 7.75,3.42 7.75,6.41 0,2.65 -2.69,4.95 -7.22,4.95 l -0.56,-1.25 c 3.56,0 4.36,-2.35 4.36,-3.66 0,-2.83 -3.17,-6.03 -7.84,-6.03 h -5.71 l -0.25,-0.98 h 7.39 c 3.27,0 4.54,-2.16 4.54,-4.18 0,-3.45 -3.54,-6.45 -7.74,-6.45 h -5.62 c -1.08,0 -1.11,0.05 -1.11,0.36 0,0.03 0,0.2 0.14,0.72 l 2.4,9.55 0.25,0.98 2.13,8.5 c 0.26,1.08 0.31,1.19 1.76,1.19 h 5.3 l 0.56,1.25 h -12.68 c -0.66,0 -1.11,0 -1.11,-0.77 0,-0.48 0.42,-0.48 1.11,-0.48 0.03,0 0.7,0 1.32,-0.08 0.74,-0.06 0.8,-0.14 0.8,-0.48 0,-0.07 0,-0.24 -0.14,-0.77 z"
           inkscape:connector-curvature="0"
           style="fill:#000000;stroke-width:0" /><path
           id="path3219"
           d="m 634.05,421.95 0.21,1.28 3.39,13.56 c 0.44,1.74 0.55,1.89 2.69,1.89 h 4.78 c 4.14,0 6.78,-1.34 6.78,-4.78 0,-1.95 -1,-6.23 -2.94,-8.03 -2.5,-2.23 -5.48,-2.64 -7.69,-2.64 h -7.01 l -0.21,-1.28 h 8.47 c 7.08,0 14,5.17 14,10.75 0,3.84 -3.28,7.53 -9.81,7.53 h -16.14 c -0.95,0 -1.5,0 -1.5,-0.95 0,-0.6 0.45,-0.6 1.45,-0.6 0.64,0 1.55,-0.04 2.14,-0.09 0.8,-0.11 1.1,-0.25 1.1,-0.8 0,-0.2 -0.05,-0.36 -0.21,-0.95 l -6.67,-26.75 c -0.5,-1.95 -0.59,-2.34 -4.53,-2.34 -0.84,0 -1.39,0 -1.39,-0.96 0,-0.59 0.59,-0.59 0.74,-0.59 1.4,0 4.93,0.16 6.32,0.16 1.05,0 2.14,-0.07 3.19,-0.07 1.11,0 2.2,-0.09 3.25,-0.09 0.34,0 0.99,0 0.99,1 0,0.55 -0.44,0.55 -1.4,0.55 -1.84,0 -3.23,0 -3.23,0.89 0,0.29 0.09,0.54 0.14,0.84 z"
           inkscape:connector-curvature="0"
           style="fill:#000000;stroke-width:0" /><path
           id="path3221"
           d="m 658.17,402.95 -0.11,-0.18 -0.12,-0.16 -0.11,-0.17 -0.11,-0.15 -0.12,-0.16 -0.11,-0.14 -0.11,-0.14 -0.12,-0.14 -0.11,-0.13 -0.12,-0.12 -0.12,-0.12 -0.12,-0.11 -0.12,-0.11 -0.12,-0.11 -0.13,-0.09 -0.13,-0.1 -0.13,-0.08 -0.13,-0.09 -0.14,-0.07 -0.13,-0.08 -0.15,-0.06 -0.14,-0.07 -0.15,-0.05 -0.15,-0.06 -0.16,-0.04 -0.16,-0.05 -0.17,-0.04 -0.17,-0.03 -0.17,-0.03 -0.18,-0.02 -0.19,-0.02 -0.19,-0.02 c -0.34,-0.03 -0.8,-0.03 -0.8,-0.73 0,-0.38 0.32,-0.52 0.49,-0.52 0.91,0 2.06,0.14 3,0.14 1.11,0 2.55,-0.14 3.59,-0.14 0.17,0 0.69,0 0.69,0.77 0,0.45 -0.45,0.48 -0.58,0.48 -0.28,0.05 -1.55,0.11 -1.55,1.05 0,0.42 0.36,1.01 0.54,1.33 l 2.78,4.31 h 9.97 l -0.18,1.26 h -8.95 l 7.31,11.4 1.64,-11.4 0.18,-1.26 0.84,-5.78 c -0.14,-0.35 -0.36,-0.91 -2.41,-0.91 -0.42,0 -0.9,0 -0.9,-0.76 0,-0.14 0.09,-0.49 0.54,-0.49 1.02,0 3.49,0.14 4.5,0.14 0.63,0 1.43,-0.03 2.07,-0.03 0.62,-0.05 1.36,-0.11 1.98,-0.11 0.45,0 0.69,0.28 0.69,0.74 0,0.51 -0.41,0.51 -0.97,0.51 -2.02,0 -2.09,0.28 -2.2,1.13 l -3.07,21.5 c -0.1,0.72 -0.17,0.97 -0.82,0.97 -0.68,0 -0.88,-0.32 -1.19,-0.8 z"
           inkscape:connector-curvature="0"
           style="fill:#000000;stroke-width:0" /></g>      <path
         transform="matrix(0.88665495,0,0,0.88665495,-60.018007,807.15343)"
         sodipodi:type="arc"
         style="fill:none;stroke:#000000;stroke-width:2;stroke-linecap:butt;stroke-miterlimit:4;stroke-dasharray:none"
         id="path3200-35-5"
         sodipodi:cx="135.36044"
         sodipodi:cy="208.88481"
         sodipodi:rx="66.670067"
         sodipodi:ry="66.670067"
         d="m 202.03051,208.88481 c 0,36.82086 -29.84921,66.67007 -66.67007,66.67007 -36.820858,0 -66.670064,-29.84921 -66.670064,-66.67007 0,-36.82086 29.849206,-66.67007 66.670064,-66.67007 36.82086,0 66.67007,29.84921 66.67007,66.67007 z" />
    </g>
    <path
       style="fill:none;stroke:#000000;stroke-width:0.93087435px;stroke-linecap:butt;stroke-linejoin:miter;stroke-opacity:1;marker-start:url(#Arrow1Lstart);marker-end:url(#Arrow1Lend)"
       d="m 60.079966,502.8275 0,79.06924"
       id="path5944"
       inkscape:connector-curvature="0" />
    <path
       style="fill:none;stroke:#000000;stroke-width:0.98002326px;stroke-linecap:butt;stroke-linejoin:miter;stroke-opacity:1;marker-start:url(#Arrow1Lstart);marker-end:url(#Arrow1Lend)"
       d="m 260.4101,502.85207 0,79.0201"
       id="path5944-8"
       inkscape:connector-curvature="0" />
    <path
       style="fill:none;stroke:#000000;stroke-width:0.98002326px;stroke-linecap:butt;stroke-linejoin:miter;stroke-opacity:1;marker-start:url(#Arrow1Lstart);marker-end:url(#Arrow1Lend)"
       d="m 460.4101,502.85207 0,79.0201"
       id="path5944-8-6"
       inkscape:connector-curvature="0" />
    <path
       style="fill:none;stroke:#000000;stroke-width:0.98002326px;stroke-linecap:butt;stroke-linejoin:miter;stroke-opacity:1;marker-start:url(#Arrow1Lstart);marker-end:url(#Arrow1Lend)"
       d="m 399.51011,642.57233 -79.0201,0"
       id="path5944-8-4"
       inkscape:connector-curvature="0" />
    <path
       style="fill:none;stroke:#000000;stroke-width:0.98002326px;stroke-linecap:butt;stroke-linejoin:miter;stroke-opacity:1;marker-start:url(#Arrow1Lstart);marker-end:url(#Arrow1Lend)"
       d="m 399.51011,442.95208 -79.0201,0"
       id="path5944-8-2"
       inkscape:connector-curvature="0" />
    <path
       style="fill:none;stroke:#000000;stroke-width:1px;stroke-linecap:butt;stroke-linejoin:miter;stroke-opacity:1;marker-start:url(#Arrow1Lstart-6);marker-end:url(#Arrow1Lend-2)"
       d="M 303.88545,602.48992 417.80387,484.8797"
       id="path6449"
       inkscape:connector-curvature="0" />
    <path
       style="fill:none;stroke:#000000;stroke-width:1px;stroke-linecap:butt;stroke-linejoin:miter;stroke-opacity:1;marker-start:url(#Arrow1Lstart-6);marker-end:url(#Arrow1Lend-2)"
       d="M 420.44087,599.32552 301.77585,484.8797"
       id="path6851"
       inkscape:connector-curvature="0" />
    <path
       style="fill:none;stroke:#000000;stroke-width:1px;stroke-linecap:butt;stroke-linejoin:miter;stroke-opacity:1;marker-end:url(#Arrow1Lend-2)"
       d="m 42.302475,386.11633 c -53.097048,-66.32425 93.462395,-71.88185 37.292816,0.74585"
       id="path7257"
       inkscape:connector-curvature="0"
       sodipodi:nodetypes="cc" />
    <path
       style="fill:none;stroke:#000000;stroke-width:1px;stroke-linecap:butt;stroke-linejoin:miter;stroke-opacity:1;marker-end:url(#Arrow1Lend-2)"
       d="m 242.30248,386.11633 c -53.09705,-66.32425 93.4624,-71.88185 37.29282,0.74585"
       id="path7257-8"
       inkscape:connector-curvature="0"
       sodipodi:nodetypes="cc" />
    <path
       style="fill:none;stroke:#000000;stroke-width:1px;stroke-linecap:butt;stroke-linejoin:miter;stroke-opacity:1;marker-end:url(#Arrow1Lend-2)"
       d="m 442.30248,386.11633 c -53.09705,-66.32425 93.46239,-71.88185 37.29282,0.74585"
       id="path7257-8-7"
       inkscape:connector-curvature="0"
       sodipodi:nodetypes="cc" />
    <path
       style="fill:none;stroke:#000000;stroke-width:1px;stroke-linecap:butt;stroke-linejoin:miter;stroke-opacity:1;marker-end:url(#Arrow1Lend-2)"
       d="m 480.84671,700.11252 c 53.09705,66.32425 -93.4624,71.88185 -37.29282,-0.74585"
       id="path7257-8-5"
       inkscape:connector-curvature="0"
       sodipodi:nodetypes="cc" />
    <path
       style="fill:none;stroke:#000000;stroke-width:1px;stroke-linecap:butt;stroke-linejoin:miter;stroke-opacity:1;marker-end:url(#Arrow1Lend-2)"
       d="m 280.84671,700.11252 c 53.09705,66.32425 -93.4624,71.88185 -37.29282,-0.74585"
       id="path7257-8-5-3"
       inkscape:connector-curvature="0"
       sodipodi:nodetypes="cc" />
    <path
       style="fill:none;stroke:#000000;stroke-width:1px;stroke-linecap:butt;stroke-linejoin:miter;stroke-opacity:1;marker-end:url(#Arrow1Lend-2)"
       d="m 80.84672,700.11252 c 53.09705,66.32425 -93.46241,71.88185 -37.29283,-0.74585"
       id="path7257-8-5-6"
       inkscape:connector-curvature="0"
       sodipodi:nodetypes="cc" />
  </g>
</svg>
